<svg xmlns="http://www.w3.org/2000/svg" xmlns:xlink="http://www.w3.org/1999/xlink" xml:space="preserve" version="1.1" style="shape-rendering:geometricPrecision;text-rendering:geometricPrecision;image-rendering:optimizeQuality;" viewBox="0 0 50800 63500" x="0px" y="0px" fill-rule="evenodd" clip-rule="evenodd"><defs><style type="text/css">
   
    .fil0 {fill:black}
   
  </style></defs><g><path class="fil0" d="M6640 47235l431 283c-236,-5 -98,72 -267,-44 -251,-172 -120,-174 -164,-239zm1978 -581l531 163c-327,199 -393,30 -531,-163zm-2665 -1453c110,81 192,165 248,329 187,554 -21,450 -36,473l-212 -802zm39863 -29120c-36,338 104,200 -245,237 171,-264 -27,-59 245,-237zm-574 -995l231 -298c126,-108 183,-133 379,-214 -94,548 -74,394 -610,512zm-40794 -41l28 -1349c151,148 87,-223 146,252l-24 825c-44,264 -99,174 -150,272zm2808 -544l-269 379c-549,-321 -1190,-826 -1636,-1202l3 -530 538 264c3,453 -5,55 -36,394 10,-34 -120,68 53,-110l164 -129c325,198 1081,605 1183,934zm1560 -1835c230,413 542,633 752,1012 -126,299 -157,439 -388,667 -314,-99 -1077,-647 -1364,-833 143,-508 339,-755 527,-1219 203,109 7,-36 234,163l90 93c164,146 33,36 149,117zm-1373 1452c-275,99 -1045,-495 -1295,-714 19,-318 65,-321 171,-600 341,186 188,178 414,318 471,292 -89,-106 278,1l1523 1019c496,348 640,181 488,742 -376,-59 -769,-460 -1003,-684 -386,-369 -475,-559 -969,-835 434,539 408,401 393,753zm-1344 -800c-547,-240 -939,-517 -483,-1174 282,109 514,346 734,517 -86,338 -174,258 -251,657zm13768 -3034c564,214 1358,1505 1547,1671 305,266 292,369 564,527 174,332 298,408 510,739 -118,324 -190,414 -313,656l-384 575 -2470 -2966 546 -1202zm-13018 1450c40,-117 113,-242 165,-376l1276 748c-29,378 -209,648 -407,994 -11,20 -22,45 -34,65 -103,174 -59,97 -131,194 -365,-107 -349,-188 -655,-397l-934 -710c-124,-146 -29,-222 -211,-338 -1,-1 -1201,-135 -563,-1053 87,-124 41,-50 181,-177l263 -238 1116 765 -66 523zm966 -135c-166,-90 -271,-147 -420,-246 -398,-263 -154,79 -239,-362 316,68 398,120 659,608zm812 79c-176,325 -115,210 -269,302 -442,-305 -593,-799 -1058,-1096l193 -544c319,101 1142,652 1333,876l-199 462zm-905 -1755l230 -488c290,116 506,296 655,538 508,825 594,233 403,1038 -328,-8 -492,-159 -738,-356 -234,-187 -374,-280 -607,-452l57 -280zm1596 523c-351,-119 -292,-62 -446,-428 346,117 311,76 446,428zm10481 -536c76,-246 84,-159 275,-252 -88,429 28,245 -275,252zm20086 110c212,-305 245,-572 598,-509l-15 266 -583 243zm-34182 95c110,-294 259,-472 383,-736 189,274 339,428 538,638l-182 -451 1033 732c-71,147 -105,220 -192,358 -123,-71 -463,-415 -383,-227 104,245 374,281 200,600 -236,64 -1234,-701 -1397,-914zm20574 -627c238,57 114,-91 190,170 -261,-40 -143,98 -190,-170zm17917 -650c142,461 242,198 373,638l-1028 671c-1210,-925 -595,-1009 274,-1538 195,117 46,33 192,123 123,76 8,18 189,106zm-3409 935c114,-195 105,-207 327,-348 546,-348 631,-527 1094,-619 127,208 226,289 358,487 -295,327 -906,805 -1332,967l-447 -487zm-33327 -848l478 459c-73,201 -142,302 -214,539 -94,113 -96,87 -187,168l-1291 -889c63,-386 140,-442 483,-633l731 356zm16159 2300c-251,304 -15,85 -311,206 -247,-364 -1304,-1604 -1420,-1912 277,-151 244,-170 500,-370 452,-353 221,-78 382,-130 184,-327 330,-485 668,-652 238,177 426,357 562,652l-1106 1017c491,-251 739,-641 1326,-871 65,102 147,207 225,311 -103,546 -609,1138 -826,1749zm14469 -1932c204,-270 982,-830 1354,-920l542 526 -643 581c-195,163 -409,342 -656,484l-597 -671zm-13275 -275c223,-320 284,-590 675,-756l324 483c-241,274 -813,801 -1183,832 20,-317 77,-292 184,-559zm0 0c-164,205 -102,275 -293,274 -294,0 -361,-364 423,-700l-130 426zm-5385 544c-69,-336 -59,-213 -306,-452 143,-294 352,-412 620,-588 708,-463 326,-366 784,-421l401 644c-73,74 -19,59 -166,165 -276,200 -164,-59 -394,225 -221,273 -339,313 -535,559l-404 -132zm20814 -719l405 -137c-97,263 -58,155 -183,380 384,-338 380,-819 1099,-988l381 555c-261,260 -977,822 -1387,932 -92,-317 -92,-312 -360,-439l45 -303zm-4989 163c82,-311 591,-533 994,-795 16,-11 38,-25 54,-36 16,-11 38,-27 54,-38l241 -155 515 489c-167,275 -1062,825 -1465,917 47,-385 42,-281 208,-551 -218,319 -175,478 -601,169zm-20499 -361c486,-181 537,-471 1008,-664l446 412c6,6 33,227 88,111 7,-16 29,39 43,58 -125,141 -101,113 -250,242 -347,301 -445,464 -821,578 -111,-116 -161,-178 -279,-319 -207,-249 -161,-109 -235,-418zm28422 -637c233,99 364,235 506,463 -259,287 -684,519 -1054,651 -203,-176 -262,-191 -381,-481l929 -633zm-35716 917l-248 -223c-99,-79 -66,-46 -148,-125l-74 -106c335,-148 362,143 626,396l-156 58zm26251 -159c54,-242 94,-365 270,-542 246,-245 80,-262 444,-27 -76,283 -154,358 -714,569zm-14283 796c145,322 339,370 441,722 -204,313 -430,757 -586,1154 -349,-165 -1294,-1240 -1420,-1412 -98,-134 6,-29 -155,-214 -54,-63 -131,-132 -182,-185l-927 -1065c285,-242 835,-657 1173,-724 215,194 260,225 393,450l-549 487c-100,109 -46,53 -118,202l731 -528c162,189 199,-344 107,370 107,-157 34,-104 222,-147l288 347c-471,456 -466,185 -605,536 342,-92 372,-229 719,-388 241,204 184,237 468,395zm19169 -1182c235,-195 131,-226 294,-361 172,-142 169,-125 387,57 -106,357 -550,620 -896,726 106,-256 29,-81 114,-249 9,-19 88,-149 101,-173zm-14978 -92c198,-268 817,-654 1098,-801 196,123 469,362 572,618 -229,270 -745,623 -1148,799l-522 -616zm-2420 457c238,-290 1343,-1064 1594,-1154 151,145 449,439 555,719 -419,80 -96,-65 -244,-22 -239,359 -997,1040 -1311,1176 -271,-204 -423,-424 -594,-719zm6255 178c-447,108 -429,412 -919,555 -144,-470 51,-288 174,-726l-347 398c-212,-216 -231,-162 -299,-504l756 -459c164,188 34,-186 149,259 193,-504 481,-794 958,-986l261 190 264 465c-242,126 -835,544 -997,808zm12788 -80c-325,-37 -368,-98 -670,-555 214,-300 1063,-801 1411,-830 8,22 23,49 31,63l194 402c-383,637 -492,440 -885,807l-81 113zm-8075 176c15,-26 1392,-1448 1963,-1174 -152,605 -809,1342 -1463,1712 -245,-179 -329,-238 -500,-538zm-23349 -1006c-149,181 -286,472 -467,644 -153,145 -223,99 -262,196 -120,299 103,-133 37,311 -312,-162 -638,-554 -783,-879l1382 -450c127,87 123,-171 93,178zm32798 -24c296,-177 655,-458 1012,-629 229,142 352,269 517,477 -128,188 -806,620 -1066,682 -254,-173 -76,-26 -256,-249 -92,-114 -125,-162 -207,-281zm-6855 299c277,-243 959,-758 1271,-881 245,168 238,169 398,424 -187,239 -1064,831 -1321,946l-348 -489zm-25127 1098c-289,189 -375,353 -726,456l-741 -549c59,-477 349,-562 651,-1280 357,-351 1268,-698 1798,-120 -552,232 -286,283 -847,447 -50,-110 -166,-315 -256,-391 -197,-166 -57,-141 -316,-12 507,199 174,111 532,415 -199,380 -87,167 -441,473 370,-189 195,-254 631,-261l175 272c-87,238 29,95 -228,320l-232 230zm10892 -1285c100,-291 390,-400 615,-516 -15,275 -28,278 -247,538l-106 103c-12,-7 -215,-98 -262,-125zm-4035 -736c264,-91 45,-2 301,-154 239,-141 37,-39 249,-130l554 567c-184,331 -382,325 -753,608l-258 -168c-54,208 1,159 -183,302 -431,-383 -367,-276 -487,-600l535 -371c7,-30 28,-36 42,-54zm-3289 1557c-281,155 -126,132 -487,235 -87,-141 -126,-192 -229,-313 58,-463 204,-344 344,-821 510,-550 -40,-439 586,-592 140,396 289,235 -443,729 295,-107 323,-240 596,-373 285,155 283,208 456,410 -67,81 -32,53 -134,144 -14,12 -37,28 -51,40l-258 193c-105,76 -126,74 -216,150 -203,172 -107,110 -164,198zm18732 -65c-113,-223 -42,-91 -184,-295 -125,-181 -79,-89 -169,-274l1741 -1166 448 435 -867 694c-246,177 -706,539 -969,606zm4816 -1080c463,-200 954,-663 1408,-804l467 493c-130,199 97,-18 -178,207 -97,80 -76,45 -169,106 -410,267 -599,527 -1101,653 -360,-509 -275,-119 -427,-655zm-15790 799c-133,-387 90,-652 314,-983 241,-357 429,-399 796,-682l564 426c-105,323 -67,248 -343,446 -345,248 -985,763 -1331,793zm-9046 -829l-327 -99c157,-210 161,-145 553,-192l-177 239c-7,-15 -32,35 -49,52zm916 276c-188,239 -179,329 -480,567l-538 -547c74,-324 -55,-91 102,-296 454,-193 420,-530 1236,-328l-320 604zm25767 357c-269,286 -288,666 -800,738 -140,-285 -2,-42 -193,-287l-178 -269c255,-261 437,-359 729,-541l1103 -670c512,-154 218,-371 1025,-619 230,293 326,239 482,676 -629,139 -769,517 -1336,699 -136,-132 -255,-281 -365,-446l-467 719zm-4274 -995c98,-72 218,-161 317,-230 681,-471 696,-501 1003,-200 214,209 133,112 225,328 -282,267 -977,826 -1409,857 -191,-378 -169,-218 42,-588 -183,146 -215,221 -461,119l283 -286zm-4843 617c190,-215 527,-660 695,-907 324,118 329,212 554,433 -211,322 -1296,1010 -1649,1146 -217,-250 -319,-269 -424,-569 297,-265 912,-729 1285,-854 -152,383 -277,338 -461,751zm-6405 -718c378,-97 623,-390 1005,-527 113,98 192,169 319,289 248,235 141,106 260,364 -430,216 -767,583 -1263,721 -77,-296 44,-146 -195,-319l-156 -133c-102,-98 -26,-38 -124,-144 10,-12 77,-105 92,-130l62 -121zm-8321 1361l-199 -83c58,-408 115,-303 284,-637 -430,640 -214,366 -496,484 -99,-323 -87,-134 59,-402 -287,113 -74,121 -398,42 -251,-472 -179,-334 -79,-480 -348,85 -287,33 -469,-195 380,-174 1209,-147 1692,-133 -88,270 69,126 -292,423 -10,9 -45,57 -53,41 -8,-17 -37,27 -55,42 436,-100 140,-136 589,-293 160,174 240,190 362,498l-945 693zm11309 1c-277,-90 -298,-136 -482,-449 125,-226 45,-147 448,-424l1420 -920c150,166 253,154 142,430l247 130c-986,290 18,-35 -938,591 -271,177 -680,419 -837,642zm-9572 -1281c-389,170 -327,281 -772,392 -169,-216 -222,-197 -314,-495 424,-221 907,-253 1475,-292l-389 395zm16085 -179l332 -386 319 107c-133,237 -319,319 -560,486 -149,-102 -189,227 -91,-207zm-4389 464c-29,-56 -134,-266 -139,-276 430,-367 753,-426 967,-729l636 -217c17,18 39,43 50,55l359 435c-254,244 -1160,874 -1505,1052l-368 -320zm-9145 -821c323,30 160,-153 237,89 -1,16 -462,1105 -985,1280l-414 -450c289,-446 844,-540 1162,-919zm17472 189c332,-228 631,-324 877,-652 322,159 400,158 616,460l-449 321c-149,90 -255,176 -379,264 -323,231 -116,107 -674,232 -180,-152 -180,-126 -309,-360l318 -265zm-14826 -171c258,-177 -7,-31 323,-152 -110,275 -4,103 -177,329 -198,-107 -190,160 -146,-177zm20861 247c-120,326 -665,592 -1018,762l-548 -398c145,-381 759,-669 1136,-774 -186,429 -162,165 -410,609 237,-204 137,-208 462,-390 266,106 130,77 378,191zm-9973 92c-409,472 -259,508 -1097,973 -191,-114 -130,-60 -288,-225l-169 -222c-8,-35 -28,-42 -43,-64l867 -636c311,-195 619,-505 955,-415 54,178 119,-224 32,212l-257 377zm-5389 -727c15,27 56,112 63,127 5,13 23,88 28,73 5,-16 16,51 27,76 -248,281 -1308,972 -1691,1126 240,-676 344,-227 447,-636 -524,233 -245,490 -752,703 -146,-201 -309,-308 -402,-554 339,-305 1480,-1022 2003,-1145l232 183c8,-15 30,31 45,47zm-8145 370c-507,221 -825,565 -1270,745l-278 -289c-217,-317 -92,-46 -125,-390 323,-41 1499,-313 1673,-66zm22581 -724l303 484 -1065 598 -427 -476c-7,-36 -26,-45 -56,-98l810 -483c108,32 112,44 160,70l275 -95zm-8131 877c368,-229 828,-515 1277,-726l447 274c-231,323 -951,772 -1270,928 -278,-156 -305,-193 -454,-476zm-5887 -138c11,-243 217,-308 514,-386 -377,829 -503,392 -514,386zm10670 -63c562,-144 805,-658 1430,-715 200,422 65,322 -7,419l191 25c10,2 50,37 57,19 8,-19 41,14 60,23 -126,169 57,-25 -134,166 -65,66 -77,69 -152,126l-839 536c-279,-117 -469,-298 -606,-599zm4274 313c-156,-266 -167,-274 -373,-427 535,-795 1347,-460 1546,-446 537,39 440,-122 864,216 1247,992 1147,2494 1354,4081l-200 29c264,271 181,210 216,984 -317,111 -1474,988 -1578,1314 419,-37 604,-224 951,-346l-269 -145c-13,-8 -39,-25 -59,-37l904 -685c-17,659 -9,525 -578,660 105,222 90,149 47,386l445 -392c183,306 66,1806 19,2123 -363,195 -842,528 -994,822 217,134 427,13 627,-54l69 126 273 -50c193,883 -587,846 -820,1573 547,-124 480,-264 847,-397 -21,321 -67,293 -273,463 -293,241 -250,93 -298,424 343,-78 341,-156 642,-253 276,2273 177,4817 141,7213 -47,3199 -51,7874 122,11051 64,1185 185,2468 129,3658 -33,675 84,1125 117,1733 16,299 9,618 5,917 -7,425 42,591 57,917 20,468 -214,1203 -180,1708 44,636 -303,623 -140,1486 -605,760 -541,801 -1634,1350 -1380,693 -6772,654 -8389,653 -984,0 -1923,108 -2924,120 -685,8 -2294,-2 -2844,145 -379,100 -911,150 -1367,107 -341,-32 -802,-258 -1223,-335 -352,-65 -1005,-57 -1415,-91 -1303,-108 -2718,-201 -3981,-457 -259,-52 -993,-183 -1238,-175 -605,19 259,180 -1368,121 -1830,-66 -3832,115 -5710,-100 -423,-49 -888,-162 -1271,-95 -546,95 -903,96 -1403,-71 -959,-322 -2835,-213 -4146,-1891 -887,-1135 -781,-1390 -1243,-1836l26 -643c-263,-226 -263,-1 -328,-288 -83,-367 23,-156 232,-443l-212 -2435 540 140 -561 -408 -386 -6981c299,-222 264,-515 264,-515l2548 1475c461,276 813,477 1266,746 358,212 997,646 1334,761 -234,-323 -2001,-1326 -2544,-1654 -1295,-780 -1292,-711 -2567,-1627l-17 -1011c107,-281 -63,-76 194,-174 -358,-393 -243,-239 -290,-1368 467,208 819,556 1327,876l3489 2176c376,263 326,380 713,514 -372,-675 -3531,-2364 -4593,-3125 -861,-616 -979,-411 -1024,-1640 340,111 4329,2717 4961,2830l-2496 -1532c-850,-506 -1787,-1019 -2510,-1601 -1,-277 -7,-521 -24,-798 -30,-514 -72,-439 189,-637 -390,-389 -258,-474 -291,-1188l-16 -1100c55,-354 41,-168 125,-281 -277,-438 -154,-495 -216,-1132 485,111 4589,2764 5104,3094 1579,1014 1050,730 1053,797 0,22 -252,-32 41,113 212,104 134,43 320,65 -342,-638 -4672,-3166 -5652,-3769 -1172,-721 -756,-653 -797,-1532 106,-81 40,-55 238,-96 -230,-508 345,359 -100,-171l-8 -1119c483,188 4119,2905 4852,3312 -141,-231 -264,-293 -536,-479l-4305 -3092 -27 -1136c278,59 279,116 664,402 213,159 422,295 648,451l3369 2295c160,109 184,118 320,231 247,204 52,164 387,200l-5389 -3779 -20 -1196c475,145 559,359 944,624l920 636c230,149 218,118 441,289 341,262 1042,814 1399,894l-396 -346c-180,-129 -316,-233 -474,-344 -362,-254 -624,-440 -971,-677l-1850 -1376 -29 -1170c478,53 4066,2925 4825,3278 -338,-459 -4387,-3301 -4775,-3450l-15 -1134c285,111 251,111 470,296l848 610c349,262 264,0 300,439 200,-114 62,-110 323,21 177,89 200,137 327,238 243,191 435,337 674,513 260,192 1079,799 1339,883l-2478 -1860 135 -582c602,64 1698,1091 2366,1368l-1653 -1252c-364,-234 -452,-74 -526,-499 103,-193 4,-11 184,-93 362,226 1138,1043 1538,1230 -210,-288 -162,-291 1,-658l158 -85c68,-412 147,-438 288,-769 23,14 58,7 68,43l506 437 -470 -619 108 -293c-163,128 -75,52 -315,132 -118,-217 -153,-219 -313,-420 -57,-72 -93,-143 -159,-209 -212,-212 -19,-56 -221,-148 51,-174 -13,-120 152,-168 -29,-46 20,-59 -149,-189 -148,-115 -165,-96 -322,-153 58,-363 30,-165 130,-478l247 -413c389,146 825,497 1088,557 -330,-218 -851,-522 -952,-811 189,-364 -3,-129 307,-272 357,464 759,853 1146,1295l462 358 -296 -330 -51 -195c-252,-105 -191,-52 -406,-279l-590 -683c-316,-317 -240,-82 -260,-550 311,91 234,92 509,224l-344 -372c84,-265 139,-276 203,-508 -273,279 -40,306 -462,452 -272,-501 128,-342 404,-765l473 -341c141,11 185,12 326,56l-472 -630c149,-317 735,-711 1077,-802 568,-151 730,143 162,532 -86,59 -121,75 -220,147l651 -355c259,225 281,253 452,503 195,287 236,245 113,599 279,-243 312,-173 466,198 -190,280 -192,129 -371,479l439 -353c1085,739 522,981 392,1514 98,-182 200,-374 304,-587 561,249 772,805 1258,1206l1169 1306c-163,-297 -343,-481 -572,-710l-1200 -1360c-242,-273 -483,-402 -424,-852 -139,76 -1,360 -396,-149 -180,-232 -234,-245 -348,-494l289 -371c713,-333 454,-495 842,-546 172,-22 240,63 242,123 2,40 26,57 26,75 6,496 -485,635 -561,1172 372,-471 228,-515 823,-845 787,474 816,934 1197,1222 281,212 68,140 353,262 -80,-171 -174,-277 -289,-432l-167 -201c-40,-40 -122,-98 -207,-185 174,-485 642,-570 644,-570l322 -317 562 468c-103,368 -133,231 -168,451 96,-193 92,-135 322,-208 151,177 329,422 549,527l-8 300c316,-94 516,343 743,613 171,204 504,553 742,696 -53,382 -33,163 -120,503l167 -265c242,127 1193,1184 1428,1506l992 1203c256,341 -36,203 464,417 -157,-279 -119,-139 -243,-436 267,-208 480,-783 655,-1139 392,200 232,223 558,450 -170,-430 -382,-221 -397,-787 -325,148 -319,-259 -693,-497 -206,-440 -534,-430 -497,-1053 -99,212 -11,98 -225,152l-1222 -1466c76,-663 556,-1020 1026,-1245 399,265 563,801 1054,1110 -74,438 -234,680 -393,1032l443 -789c261,195 1026,1087 1178,1354l21 163c291,77 91,-7 360,211l-232 -365c71,-306 13,-103 126,-361 142,-184 273,-444 409,-697l272 -549c80,-120 71,-93 143,-175 777,38 68,103 851,609 -268,-668 -296,-133 -464,-819 535,-194 610,-471 1075,-690 139,89 17,0 168,126l160 137c13,10 38,30 57,44l-11 277 -725 1065c-10,-1 -203,-53 -205,-54 211,483 185,180 12,705l171 -201c20,-16 55,-37 72,-51 19,-16 52,-36 79,-54 153,270 689,913 864,1047 -343,-915 -1150,-746 -695,-1603l293 -538 526 -103c103,229 686,962 893,1120 -8,324 -8,216 -89,480 235,-328 -43,-157 342,-176 -80,-447 -61,-271 74,-617l-250 280c-334,-289 -814,-870 -955,-1277 201,-101 259,-119 443,-273l325 -315c407,-179 686,-548 1124,-727l378 549c-275,476 -839,610 -1009,960 1015,-572 2003,-1589 2892,-1950 294,236 358,256 458,533 -411,418 -1078,684 -1355,1156 432,-234 1093,-888 1524,-1037 163,243 154,71 32,409 333,-182 131,-119 436,41 -130,279 -338,316 -546,536 -71,-93 -293,255 15,-374 -51,55 -72,69 -131,157l-243 394c-149,210 -207,273 -227,583 75,-352 887,-893 1225,-1081l506 586c-19,18 -45,41 -59,53 -282,224 -208,93 -352,316 353,-89 199,-124 601,-226 214,576 -71,169 280,431 120,90 1054,1072 1074,1473 13,-8 32,-23 38,-23 6,-1 35,-13 43,-12 9,1 40,4 49,6 177,39 48,2 181,124 -155,-412 -172,-225 -1,-680l-248 262c-214,-242 -427,-447 -638,-728 -270,-361 -535,-392 -492,-897 -132,80 61,116 -149,47 -185,-60 -9,69 -110,-175 128,-48 182,-56 303,-128 205,-122 859,-763 1533,-1075 277,176 315,222 462,517 -298,163 -512,321 -725,509 407,-169 499,-324 850,-427l278 228c-119,553 -260,393 -379,844l366 -665c606,293 485,613 1063,951 -121,-359 -404,-432 -582,-816 418,-394 813,-602 1342,-914l536 465c-96,237 -152,277 -411,420 -303,167 -255,16 -407,287 454,-74 447,-244 663,-297 199,-49 54,-65 136,39 85,-166 92,-67 189,-140 386,248 427,519 616,718l685 594c-145,-402 -221,-294 -459,-624 106,-128 133,-159 269,-260 189,-142 153,-110 352,-287l518 -400c235,-72 291,30 281,209 -11,173 -230,402 -342,643 -492,727 -492,237 -470,561 326,141 438,-469 1336,-760l431 567c-421,281 -373,66 -422,311 338,-33 299,-124 561,-196l281 362c103,118 -10,-8 141,132 466,433 127,303 523,489l-509 -633c77,-380 -6,-91 124,-372 -235,296 -149,337 -454,0 80,-290 -93,-50 184,-286 56,-48 180,-122 273,-188 711,-501 100,288 727,-543 286,87 255,117 432,320 160,185 215,224 356,423l-144 276c183,-76 242,-92 372,-195l1278 -643c36,-169 31,-109 72,-190 9,-18 84,-112 98,-135 -646,95 -494,-138 -881,-482 -107,-167 -41,-43 -117,-172 -73,-125 2,68 -98,-215l651 -240c125,27 265,-40 88,-193 -261,-113 -602,234 -930,354 -118,-126 -282,-313 -399,-448 657,-915 1220,-279 1443,-1005 -551,98 -1025,654 -1567,817 -212,-149 -352,-284 -471,-559 401,-182 774,-530 1228,-644 -140,369 -80,140 -280,440 194,-170 379,-249 451,-603 -728,62 -1037,681 -1646,724zm-20861 -247c-263,399 -855,947 -1357,989 -121,318 -1116,968 -1371,1023 -201,-153 -283,-214 -398,-480 278,-561 584,-494 1049,-904l81 -97c-376,89 -373,246 -767,383 66,-319 142,-435 307,-656l276 -460c268,-36 550,-24 782,-62 621,-102 731,-241 665,54 737,-223 1017,-228 1839,-352 -142,210 -387,317 -546,432l-383 -195 -177 325zm1387 437l-297 82 -475 -540c22,-16 49,-39 65,-51l222 -170c648,-494 1042,-390 2188,-450 -308,330 -1063,531 -1584,979 -135,116 -40,33 -119,150zm13522 -1385l1158 69 -1707 1178c-202,-124 -383,-295 -537,-503 140,-173 300,-250 517,-398 316,-216 268,-22 425,-50l144 -296zm-3370 1008c-180,-352 -81,-249 -384,-409 92,-135 -8,-107 249,-260 171,-101 75,-42 306,-112l332 -164c15,-121 855,-74 987,-78 -124,471 -1287,1001 -1490,1023zm8396 -802l1165 -148c-109,253 -469,408 -709,505 -336,-190 -119,-194 -456,-357zm-1520 315c40,-309 58,-188 227,-444l739 29c-244,250 -576,385 -966,415zm-340 -416c243,-106 116,-133 405,0 -31,50 49,165 -197,182 -304,21 -80,26 -208,-182zm-2016 227c350,-87 246,-52 494,-285 375,-31 707,-60 1010,58l-1101 710c-357,-256 -312,-199 -403,-483zm-10560 228c-117,-227 -60,-89 -156,-332 404,-185 990,-186 1470,-72l-1050 592 -264 -188zm-1912 -351l1576 -136c-106,153 -10,75 -158,192 -23,18 -95,54 -120,67l-1765 1003c-193,-106 -196,-111 -335,-252l-261 -383 1063 -491zm9576 -152c397,-98 898,-20 1318,7 -193,257 -609,507 -935,486 -102,-209 -94,-144 -2,-393l-381 -100zm-3499 270c579,-388 1729,-457 2069,-211 -1202,454 -567,220 -1181,111 177,280 83,-4 282,362 -629,217 -1121,832 -1683,994 -325,-369 -357,-302 -463,-564l976 -692zm-2337 419c-481,154 -760,525 -1182,565 4,-347 291,-886 772,-976 -20,-252 -63,-34 41,-276l2884 -10c-236,194 -974,714 -1325,846 -285,-182 -255,-110 -391,-425 18,-6 46,-12 55,-14 581,-162 -252,223 226,-77 -58,-41 42,-142 -336,-86 -230,35 -22,-12 -261,115l-483 338zm180 -1251c-1004,336 -2948,153 -4021,138 -1371,-19 -2740,103 -4112,143 -2637,78 -5463,121 -8072,278 -690,41 -1393,6 -2072,38 -668,31 -1193,151 -1839,139 -2503,-48 -1421,101 -2601,373 -1124,259 -1715,1025 -2084,2115 -77,227 -133,549 -220,784 -172,466 -328,186 -414,670 -38,217 106,446 129,771l135 4131c-33,685 -67,1274 -63,1899 5,630 -94,1303 -88,2013 6,719 38,1366 -17,2090l35 6136c169,2022 88,4038 209,5937 81,1273 -75,2650 25,3985l151 4026c139,1216 327,2749 268,3955 450,355 169,152 378,696 348,902 908,1522 1621,2034 146,105 216,92 349,199 376,304 -36,213 595,413 890,281 924,145 1789,105 5289,-243 11164,-149 16537,-64 2795,45 5472,-225 8225,-218 954,3 2269,-18 3227,-117 713,-73 1026,88 1615,46 1027,-72 3106,12 4566,-176 604,-78 383,-199 725,-370 733,-366 753,-272 1432,-759 866,-622 1511,-2183 1485,-2786 -13,-286 -179,-455 -170,-919 6,-337 80,-614 57,-869l-388 -8361c-23,-1310 40,-2877 -102,-4118 -49,-424 1,-702 38,-1017 48,-401 -39,-622 -50,-987 -46,-1556 113,-4207 89,-6125 -8,-671 77,-1249 10,-2010 -60,-678 -79,-1443 -115,-2095 -72,-1328 -139,-2798 -51,-4181 102,-1616 109,-4048 -334,-5670 -220,-806 -665,-1058 -818,-1274 -225,-318 -261,-313 -549,-540 -608,-480 -1849,-354 -2625,-363 -1389,-15 -2938,68 -4296,5 -1589,-72 -6966,-57 -8498,47l-91 -147z"/><path class="fil0" d="M19048 37712c193,-106 145,-127 466,-21 -176,159 249,120 -268,121 -268,0 9,30 -198,-100zm505 212c40,-490 131,-406 693,-357l-693 357zm1800 -1219c-122,216 -5,162 -249,237 -285,87 -283,-52 -301,-85l550 -152zm-2144 -4c281,-472 504,-253 1214,-207 -73,78 -29,70 -155,142 -19,11 -44,21 -65,31 -21,9 -47,15 -70,23 -516,193 -662,175 -924,11zm1177 115c87,-138 32,-178 296,-315 242,-126 1013,-168 1176,-74 -238,164 -1190,354 -1472,389zm1552 -860c257,-55 486,-151 679,-77 -61,56 -156,169 -293,194 -442,83 -353,-93 -386,-117zm-1782 -56c284,-77 302,-157 538,-308l664 399c-295,62 -708,99 -1146,74l-56 -165zm1162 -856c253,-110 317,-278 613,-125 282,145 -3,-11 -121,284 1451,102 1651,-274 2037,-24 -1684,531 -1624,73 -2336,199 -382,68 -253,133 -337,171l-178 25c-9,-23 -45,-16 -67,-26 -3,-18 -11,-46 -10,-55 49,-251 76,-104 399,-449zm3290 -624c285,-11 122,35 174,63 -231,124 -135,168 -430,25 86,-53 -169,-73 256,-88zm-2001 -356c17,17 36,44 46,53 9,10 33,40 44,50 305,285 92,-149 467,254l-765 50c-43,118 -146,-176 -37,197 93,320 1018,143 1551,121 -310,218 -1450,466 -2064,-130l758 -595zm-2681 -534c366,-184 534,-410 860,-573 286,118 1477,735 1763,1003 -868,804 -834,743 -1766,190 -326,-194 -675,-279 -857,-620zm-1603 -564c307,92 1020,512 1293,720 -146,202 -511,609 -749,597 -379,-158 -902,-519 -1108,-787l564 -530zm8461 148c-288,297 -387,386 -657,-3l657 3zm-3252 399c64,-229 46,-289 543,-522 99,201 -1,258 109,532l-652 -10zm-4969 -783c264,-124 557,-322 709,-636 346,69 951,417 1255,672l96 98c-265,252 -543,382 -692,689 -357,-59 -860,-319 -1127,-533 -179,-144 -137,-58 -241,-290zm4969 783c593,393 1832,-84 2376,173 -737,655 -1126,248 -2662,86 -1585,-167 -742,-238 -2290,-870 166,-346 -27,-74 272,-333 94,-81 147,-107 260,-193 225,-171 360,-298 577,-449 477,96 1359,725 1837,923 -259,419 -677,445 -862,843 255,-122 171,-142 492,-180zm684 -649c14,-21 32,-50 43,-64 11,-13 30,-45 44,-60l97 -100c89,-84 49,-39 156,-121 168,-129 228,-161 368,-268l705 -542c151,44 270,76 386,130 117,55 70,33 172,104 12,8 41,64 49,48 9,-17 33,34 49,51 -351,433 -500,78 -828,274 475,222 943,72 1450,104 793,50 626,-172 1066,-13 -139,134 -59,79 -262,141 -652,199 -211,134 -653,460l-59 -273c-757,67 -1282,83 -2010,-59 -290,48 -365,377 -365,377 -159,-27 -42,26 -230,-53 -146,-61 -94,-63 -178,-136zm-7140 -997c252,-249 513,-526 877,-675 260,113 456,257 714,409 275,162 490,275 616,503 -368,167 -478,392 -873,611 -374,-146 -1087,-584 -1334,-848zm2503 83c186,-216 917,-889 1160,-850 141,23 1092,625 1212,764 -338,265 -766,658 -1165,849l-962 -530c-125,-88 -28,-15 -153,-129 -11,-10 -39,-21 -46,-51 -8,-31 -31,-35 -46,-53zm4039 -1229c350,116 632,294 958,451 298,145 678,278 894,532 -237,105 -1136,834 -1366,1055 -322,-66 -1656,-788 -1847,-992l1361 -1046zm2409 635c671,-622 636,-509 1139,-288l-72 160c-20,60 -30,59 -38,110 -23,150 -4,119 43,255 -691,-51 -604,-231 -808,-100 522,564 2134,136 2551,366 -438,331 -1064,176 -1662,184 -905,12 -464,-56 -1399,-419l246 -268zm-8544 2065c-147,456 -900,660 -1173,1133 361,-70 458,-255 682,-459 208,-189 385,-329 610,-461l1112 783 -316 379c727,-316 49,-176 884,-234 -417,-203 -118,-1 -252,-286 292,-131 398,-285 631,-504 709,122 1216,721 1867,904 -113,263 -55,116 -210,368 -293,99 -427,204 -636,364l-526 492c-288,88 -608,325 -904,549 -434,328 -522,248 -717,704 421,-161 482,72 970,87 382,11 800,-128 1072,9 -472,253 -1654,256 -2162,195 160,270 103,175 489,255 -220,136 -656,127 -851,33 92,338 259,316 310,464l-728 -125c307,375 765,250 1320,252 -195,230 -288,216 -711,402 -399,177 -368,182 -761,84 -873,-219 66,397 -1434,170 205,446 828,381 1286,336 -66,92 -110,217 -310,261 -111,25 -251,-31 -462,-41 -185,431 -61,585 -691,625 45,-415 60,-995 56,-1452 -7,-731 -332,-1084 293,-1006 -89,-99 26,17 -138,-136 -65,-62 -69,-57 -151,-134 -8,-1001 -58,-2497 -142,-3408l-137 -3206c217,-122 525,-302 656,-514 464,-39 1325,639 1448,834l-809 636c-506,-268 -745,-508 -1107,-808 121,518 682,621 980,959 -292,307 -552,382 -684,677 324,-144 476,-304 677,-589 377,73 1266,669 1441,851 -256,359 -439,502 -772,557zm6311 -2933c455,-149 643,-407 1018,-631l1711 924c-180,246 -622,535 -836,723l-1569 -690c-373,-201 -224,-28 -324,-326zm-2919 282c464,-162 672,-612 1190,-833 1,0 1165,429 1390,778 -511,252 -852,744 -1390,976 -284,-124 -429,-265 -703,-407 -310,-162 -543,-155 -487,-514zm9780 -9c-192,-79 -373,-148 -610,-208 -558,-142 -410,-151 -507,-274 532,-12 1322,-99 1749,118 -139,150 -431,289 -632,364zm-3807 -15c80,-102 1041,-880 1134,-911 402,-134 315,156 561,300 287,169 476,16 754,262l-467 60c-431,-6 -860,-113 -1282,-48l-112 299c-313,454 -24,-289 -143,130 653,152 2171,78 2961,73 -170,261 -479,450 -751,529 -435,126 -1978,-207 -2655,-694zm-7901 -542c561,-16 1064,513 1565,725 -134,232 -934,851 -1097,934 -183,-61 -1237,-628 -1366,-918 -471,-72 -1127,-530 -1390,-822 246,-240 677,-664 1020,-837 274,103 472,243 716,395 678,423 506,252 552,523zm-2638 100c-409,123 -194,189 -684,332l54 -960c219,114 494,313 701,454 -114,84 -31,92 -71,174zm4566 466c-366,101 -539,-63 -856,-247l-730 -491 1222 -995c264,66 1205,633 1379,812 -286,345 -879,672 -1015,921zm1363 -1102c472,-208 530,-473 1014,-686l1377 746c-362,471 -629,389 -835,760 -403,-1 -557,-139 -877,-305 -119,-61 -357,-159 -431,-206 -334,-208 -163,26 -248,-309zm2704 -51c457,-174 742,-567 1153,-804l1797 874c-1174,1406 -1557,821 -2223,488 -339,-169 -540,-221 -727,-558zm7005 -529l1514 -27c-206,426 -1349,160 -1514,27zm-14107 -55c427,-153 809,-602 1209,-829 417,177 967,416 1284,731l-1192 1011c-323,-98 -427,-216 -710,-391 -711,-441 -491,-238 -591,-522zm10480 682c-29,-248 305,-384 542,-562 224,-167 379,-294 580,-482 352,54 384,48 599,322 -521,-38 -628,-165 -908,141 379,510 1973,-39 3056,421 -1814,129 -1236,166 -2992,-59 88,204 -88,135 286,234l1354 78c758,-3 1141,-116 1326,-123 553,-19 123,-72 330,103 -979,332 -967,212 -2023,134 -436,-33 -1770,-81 -2150,-207zm-4906 -871c320,-360 755,-696 1118,-898 411,150 1077,498 1395,807 -260,302 -686,614 -1121,886 -264,-85 -1177,-554 -1392,-795zm10088 80c50,-58 143,-205 287,-245 570,-158 329,62 382,107l-669 138zm-6050 -1262l1930 889c-199,294 -330,311 -658,557 -243,182 -438,375 -719,469 -18,0 -1528,-634 -1729,-941 238,-178 1045,-686 1176,-974zm6193 725c317,-137 881,-166 1262,-139 -164,107 -250,189 -504,221 -16,2 -456,19 -464,19 -449,-38 -187,-34 -294,-101zm-15805 646c-430,12 -1023,-531 -1314,-738 156,-229 375,-298 590,-471 319,-256 266,-291 681,-443 348,251 829,471 1094,732 -68,87 -44,61 -140,153l-911 767zm14023 -1015l333 261c-524,1 -1414,-382 -1399,128 375,451 1470,104 2018,254l-1614 255c-542,-18 -1102,-63 -1463,-346 156,-239 945,-770 1198,-910l927 358zm-11813 -733c613,46 2000,1174 3038,1536 -265,486 -610,401 -850,847 -437,36 -1391,-578 -1562,-845 212,-142 410,-229 595,-546 -324,185 -450,347 -760,522 -488,-125 -848,-494 -1318,-645 151,-279 -13,-21 142,-195l310 -259c243,-190 262,-198 405,-415zm1784 645c230,-267 823,-745 1153,-899l1362 808c-72,124 -4,40 -111,156l-424 314c-282,214 -243,288 -561,444 -134,16 -1174,-534 -1419,-823zm-5465 2108c-298,-306 -674,-385 -774,-852 -96,-445 -43,-1041 -117,-1467 346,113 574,320 752,577 -150,162 -213,196 -331,317 347,4 151,-57 500,-236 360,242 684,555 1138,700 -150,385 -734,851 -1168,961zm11412 -2473c88,-116 27,-44 146,-159l995 -722 1834 853c-163,292 27,65 -286,303l-912 606c-539,-153 -1425,-587 -1777,-881zm-329 97c-170,73 17,-33 -231,124 -440,278 -759,653 -1148,834l-1399 -741c190,-310 1175,-1003 1229,-1009 310,78 1353,585 1549,792zm4411 356c-191,-231 -489,-316 -751,-427l245 -243c632,-501 1814,-462 2279,-207 235,128 123,77 208,153 -371,45 -874,158 -1191,163 -813,11 -788,-61 -818,456l2118 31 -1043 330c-461,85 -624,-198 -1047,-256zm-11813 -733c-398,179 -587,457 -1001,689 -428,-180 -884,-485 -1196,-646 162,-291 864,-802 922,-812 72,-12 1138,438 1275,769zm16530 -88c-612,289 -703,357 -1541,360 -348,1 -1078,-317 -1254,-527 579,-19 991,251 1366,186 334,-57 477,-32 808,-43 116,-4 326,-38 399,-39 398,-3 60,-35 222,63zm-16206 32c177,-386 575,-577 1054,-1013 397,74 960,492 1379,680 -184,275 -715,653 -999,870 -11,9 -46,57 -54,40 -8,-16 -36,28 -74,78l-1306 -655zm16511 -486c-2,-184 -30,-36 94,-30 211,11 -92,307 -94,30zm-4220 -183c67,-43 137,-137 424,-69l330 186c-353,15 -470,29 -754,-117zm-830 0c232,-123 204,-142 451,0 -228,118 -220,104 -451,0zm-5732 178c137,-203 976,-885 1254,-876 191,6 1023,556 1395,675 -147,257 -940,839 -1219,972l-1430 -771zm-9256 15l-222 -405c397,-176 514,-438 871,-638 433,200 778,440 1186,644 -246,359 -604,484 -902,832 -463,-130 -539,-361 -933,-433zm0 0c15,15 38,34 48,42 10,9 36,32 48,43l597 453c-250,291 -835,685 -1141,865 -420,-227 -445,-300 -761,-565l39 -118c0,-6 4,-31 3,-38l-218 -236c17,-518 -51,-791 -40,-1283l935 513c-125,305 -44,123 -199,370 310,-216 289,-181 689,-46zm19473 -376c-351,163 -752,-9 -1008,-183 164,-118 27,83 277,-215 286,41 240,16 445,132l286 266zm-6031 -852c473,124 780,421 1266,605 -70,179 -195,156 49,472 -362,80 -224,9 -422,232 205,359 -44,-6 369,248 -540,425 -556,452 -1256,112 -334,-162 -955,-446 -1182,-634l1176 -1035zm-5945 496c25,12 104,42 130,53l1264 669c-126,229 -1018,883 -1206,984 -273,-97 -1133,-590 -1378,-802 83,-135 -40,-5 167,-205 200,-192 321,-186 499,-465 -945,349 -276,906 -1680,143 -320,-173 -334,-120 -494,-439 509,-193 737,-575 962,-701 355,-198 669,134 1054,345l619 388c19,10 43,21 63,30zm-5332 356c102,-160 909,-862 1072,-908 278,-76 1066,448 1258,634 -68,97 -28,47 -129,151l-447 379c-552,474 -574,663 -1754,-256zm5493 -421c153,-360 -29,-91 266,-349 127,-110 203,-148 315,-230 217,-159 404,-312 634,-432 250,81 454,206 713,355l518 306c102,72 98,72 157,132 -232,260 -829,648 -1130,925l-1473 -707zm3312 -584c462,-109 880,-610 1165,-582l1146 674c-200,268 -993,952 -1215,966 -211,13 -1200,-571 -1438,-697l301 -311c6,-28 29,-32 41,-50zm2620 -130c208,-213 1259,-175 1412,-148 445,78 190,29 304,187 -140,90 17,49 -223,84 -257,38 -377,-79 -655,99 74,238 -218,158 298,268l2763 346c9,-18 38,16 57,25 -18,12 -43,29 -56,33 -540,194 -920,-65 -1263,-48l-870 40c-627,-15 -805,-212 -1404,-532 -367,-196 -230,-52 -363,-354zm-12755 313c228,-235 953,-771 1185,-913 373,135 808,448 1170,641 -161,259 -973,861 -1170,983 -301,-88 -377,-152 -667,-317l-518 -394zm16539 -91c-345,132 -732,123 -1134,46 -155,-30 -423,-74 -538,-104 -108,-28 -120,-18 -208,-72 -231,-139 -1,37 -163,-192l1667 165c261,45 210,31 376,157zm-13437 -642c412,-161 332,-256 643,-442l1241 587c-178,378 -254,344 -534,567 -288,229 -267,266 -632,463l-1122 -716c183,-273 269,-170 404,-459zm9048 275c14,-8 -53,-156 330,-73 572,124 23,-32 260,166 -223,101 -306,39 -335,31 -76,-22 -165,-84 -255,-124zm-2015 275c-1024,238 273,519 -1912,-520 146,-206 1156,-970 1363,-974l1465 763c-226,324 -494,326 -746,534 -210,172 -74,16 -170,197zm3100 -889c527,120 -120,172 490,90 634,-86 2139,204 2455,341l-2472 -116c-97,-11 -268,-51 -305,-55 -185,-19 -145,-1 -336,0 -264,1 -360,-13 -622,-52 -791,-119 -495,365 -967,-50l1757 -158zm-14379 341c237,-358 265,-255 539,-513 226,-210 303,-296 501,-469 382,120 701,444 1155,594 -137,300 48,65 -272,353l-965 690c-206,-90 -342,-179 -534,-301 -56,-35 -180,-111 -224,-146 -182,-146 -67,-5 -200,-208zm4246 -2c-423,194 -427,469 -870,246 -267,-134 -592,-364 -848,-505 168,-279 844,-785 1186,-910 356,266 632,399 1005,623 -169,433 -252,173 -473,546zm867 -546c163,-254 319,-316 559,-496 1097,-824 568,-451 1861,128l-284 389c559,-247 369,-342 957,41 264,172 545,356 813,443 -133,261 -295,325 -599,560 -1037,802 -559,313 -2157,-426l-1150 -639zm2767 -365c150,-173 1011,-834 1221,-957l1474 746c-185,273 -379,372 -669,569 -647,438 -607,669 -1767,-136l-209 -174c-8,-30 -34,-31 -50,-48zm3040 -277c540,-144 464,-482 1095,-284 1048,330 622,88 568,652l540 177c-521,225 -584,497 -1223,123 -305,-178 -833,-353 -980,-668zm-9690 -9c334,-120 509,-354 796,-564 249,-182 83,-79 305,-192l1109 676c-85,159 5,29 -120,167l-900 680c-388,-89 -1007,-479 -1190,-767zm2576 -59c132,-216 997,-887 1264,-1020 360,126 772,385 1104,634 -279,346 -868,718 -1214,1016l-1154 -630zm9210 -569c226,-162 466,-131 710,0 -193,119 -447,104 -710,0zm-6465 183c74,-129 -1,-28 109,-150l1022 -724c297,-97 1027,361 1261,600 -325,309 -818,720 -1237,947l-1155 -673zm-5321 445c-377,-101 -542,-267 -726,-618 353,-229 569,-481 911,-675 266,98 569,262 742,482 -268,219 -789,547 -927,811zm2463 -1903c317,33 1017,480 1218,727 -261,269 -1006,871 -1303,979 -198,-97 -950,-511 -1106,-705 315,-305 986,-712 1191,-1001zm7227 1912c-386,-18 -895,-330 -1263,-559l-338 -261c108,-113 23,-30 160,-155 23,-20 113,-92 151,-126 296,-229 572,-504 1114,-176l-350 49c-215,84 -121,-55 -203,225 311,278 934,143 1384,272 -214,614 -370,340 -655,731zm-1290 -1101c-603,119 -174,488 -1317,-221 -229,-141 -167,-89 -310,-248l616 -361c340,-68 -44,136 558,212 207,26 388,11 603,50 33,433 27,219 -150,568zm-4375 -86c132,-182 947,-840 1172,-923 263,-96 1029,428 1255,629l-1169 828c-290,141 -945,-369 -1258,-534zm6310 -359c100,-57 -10,-52 183,-69l547 144c-233,145 -440,57 -730,-75zm-643 -30c-248,-31 -201,-36 -353,-163l801 97 -448 66zm-7229 -336c-413,75 -914,698 -1384,942l-726 -489c366,-362 868,-827 1294,-1086 291,135 723,373 816,633zm5309 -310l294 20c-45,34 117,282 -294,-20zm-2264 -60c323,-432 588,-455 1256,-479l183 524 714 11c-947,449 -897,999 -2153,-56zm-1608 -625c529,82 712,419 1266,587 -170,284 -1157,916 -1338,987l-1077 -707 1149 -867zm-4598 564c355,-257 981,-769 1344,-879l848 575 -1309 1082c-595,-253 -649,-438 -883,-778zm4882 -636c122,-172 12,-62 200,-220 86,-72 94,-64 169,-113 536,-350 641,-481 1212,-168 -225,160 -255,66 -391,376 156,201 215,169 466,298l127 79c-309,125 -370,247 -670,370l-1113 -622zm1727 -482c228,-146 -450,-191 731,28 264,48 440,55 671,138 -387,195 -1048,-39 -1402,-166zm-2800 -467c558,-282 218,-287 1005,-221 513,43 658,100 803,493 -1353,870 -669,413 -1956,14 15,-27 62,-139 70,-156l78 -130zm-544 457c346,-179 372,-105 710,105 192,118 400,231 558,354 -158,196 -910,692 -1183,862l-698 -437c-133,-155 -69,-8 -123,-238 -486,-12 -624,-272 -1043,-434 217,-396 778,-654 1151,-887l765 435 -137 240zm-3229 -933c513,-226 686,-830 1304,-540 160,75 1080,647 1158,736 -1020,837 -1398,988 -2462,-196zm3773 476c-393,144 -392,64 -962,-220 17,-26 38,-57 53,-74l110 -127c366,-330 900,-532 1337,-217 -155,466 -324,262 -538,638zm708 -802c233,-140 396,-87 753,-38 286,39 503,61 700,202 -297,189 -1109,-70 -1453,-164zm-2332 144c-291,-176 -822,-357 -934,-699l225 -103c704,-704 1269,49 1327,78 190,96 248,75 466,100 -100,215 -120,157 -122,351l51 236c-554,272 -421,396 -1013,37zm2816 -535c-742,-50 -426,-108 -605,-216 -328,-197 -255,40 -617,-261 596,35 953,95 1222,477zm-4543 -1156c155,-110 224,-158 425,-208 8,15 14,40 16,48 2,8 11,38 14,48 3,9 9,38 12,48 3,11 8,40 12,50 4,11 9,39 15,49 161,299 476,84 778,306 -57,247 -62,302 -279,408 -390,188 -1036,-217 -1380,-408l387 -341zm1427 -298c82,-60 2,-65 195,-98 228,-39 477,91 641,189 -262,148 -582,59 -836,-91zm-3108 5207c428,-168 638,-517 1009,-757l278 205c105,92 45,62 191,176 154,120 352,210 506,295 -303,515 -1357,1068 -1754,1686 236,-100 446,-426 779,-603l626 460c-159,239 -416,440 -626,637 -95,89 -242,247 -355,304 -16,8 -43,19 -59,26 -16,6 -44,13 -59,17 -14,4 -43,7 -56,10l-181 -5c171,108 646,598 1211,806 -165,362 -551,641 -866,866 -241,-61 -876,-413 -1021,-638 -197,-304 -209,-3923 -222,-4490 -131,-5401 64,-3081 1404,-4855l179 139c17,12 38,30 57,42 336,216 476,120 702,289 6,446 43,284 -353,563 -178,126 -359,261 -530,384l-913 861c455,-135 615,-618 1154,-818 311,165 694,335 959,563 -140,232 -971,886 -1186,1051 -344,265 -918,632 -1105,1012 252,-63 108,-44 319,-238 149,-136 194,-166 353,-292 253,-201 429,-345 660,-520 299,80 183,112 652,435 205,142 408,260 598,396l-1790 1453c-392,342 -388,178 -561,540zm2002 -6121c-47,22 137,122 -205,39 -509,-124 -73,-12 -275,-199l480 160zm-2554 -1227c403,78 450,179 767,300 30,199 -78,253 -79,251 -4,-16 -32,35 -41,33l384 249c-4,18 -24,86 -30,105 -97,316 22,-232 -73,193 432,23 247,-88 583,96 -325,363 -1029,977 -1497,1188l-14 -2415zm1681 -11c-798,265 -1105,-678 -1851,-580 -257,397 173,46 -447,630 37,686 249,1493 254,2194l-94 2260c-843,-134 -3966,-496 -4720,-81 1538,159 3265,-315 4736,249 48,561 14,1121 3,1683 -10,560 128,968 93,1595 -736,-79 -3349,-295 -3988,5 534,94 2132,-145 3987,127l59 1717c-608,-8 -1223,-153 -1897,-128 -625,23 -1253,84 -1958,38 399,320 1474,105 1957,102 667,-4 1292,48 1897,127l86 1469c-358,-7 -3645,-125 -3850,281 999,-90 2843,-340 3858,-102l106 2621c168,1856 103,6490 246,7732 -431,16 -2959,183 -3122,312 402,187 2528,-106 3103,-155 100,581 38,1480 7,1987 -39,642 170,678 -5,1612 -104,558 -21,306 49,423 635,-153 -213,12 689,-267l3511 -2245c682,-504 1239,-876 1991,-1380 2992,-2005 1717,-1776 4686,-2013 4179,-334 6854,-427 11055,-448 2680,-14 4528,132 7215,282 -637,-335 -4998,-390 -6393,-405 -4946,-53 -8627,220 -13536,544l875 -637c1809,-1211 1438,-861 3089,-1012 1802,-165 3506,-153 5281,-330 1756,-175 3557,-116 5299,-257 1663,-135 3594,-281 5167,-29 -76,-220 -19,-164 -329,-205 -1084,-145 -6955,234 -8219,251l-8492 542c143,-208 2552,-1808 3001,-1842 1521,-113 3101,-161 4573,-258 1686,-112 7984,-607 9151,-117 -88,-158 -65,-199 -375,-236l-3383 -71c-3290,0 -6549,535 -9814,551 202,-259 385,-261 905,-545l4754 -2918c421,-286 421,-209 881,-380l133 -253c12,-15 29,-35 43,-48 111,-104 167,-87 304,-152 1101,-525 -546,-969 -848,-1148 -502,-298 -733,-460 -1250,-672l-3682 -2072c-657,-337 -410,-304 -578,-419 -137,-94 -468,-133 -679,-244l-2064 -1138c-827,-655 -393,-145 -1079,-565l-1823 -1088c-946,-327 -1660,-915 -2472,-1373l-1619 -843c-239,-168 -144,-157 -230,-222 -263,-200 -316,-36 -667,-261 -503,-324 -1964,-1174 -2517,-1326 357,-219 372,-44 174,-197 -624,-203 -580,-37 -1243,-413l6 -259z"/><path class="fil0" d="M41279 15691l-805 -63c96,-300 -1,-150 203,-343 234,-30 393,146 602,406zm-2123 -914c408,-427 74,-432 577,-645 251,282 715,722 909,1019l-279 438 -1527 0c43,-467 199,-367 320,-812zm0 0l-531 822c-1902,-47 -2439,7 -4285,49 126,-570 426,-792 593,-1279 -214,240 -510,890 -673,1269l-2143 28c-11,-23 -19,-57 -23,-73l-35 -345c-320,827 -504,481 -1178,-334 -645,-778 -62,-415 -536,-752l-410 -377c338,654 1107,1291 1464,1911l-1463 64c-17,-391 65,-245 131,-612l-207 544c-47,-19 -283,-101 -297,-108 -99,299 100,145 -362,197l-1432 3c69,-323 129,-312 241,-638l-243 476 -2481 211c89,-468 282,-853 505,-1150 430,278 156,170 386,523 33,-44 271,139 -80,-345 -144,-198 -131,-173 -227,-361 78,-175 150,-282 187,-509 -42,85 -40,101 -98,191 -72,109 -86,110 -148,180l-637 -684c1059,1546 337,634 62,2156l-5557 154c-150,226 -34,-62 27,63 175,84 7107,-69 7789,-178l99 235c71,-175 21,-113 131,-209l1945 -37c-48,330 -118,302 -174,653l235 -632 6595 -144 -685 1268c-3465,50 -8063,-7 -11460,196 -1073,64 -1107,-69 -1157,175 874,79 2032,-119 2970,-118 3110,0 6335,-136 9532,-123 -81,173 -102,186 -166,370l190 -356 2162 -95c-45,575 -316,499 -435,1148 36,-236 471,-959 595,-1130l3660 11 -549 996c819,-853 126,-965 1425,-1066l-605 -224 -1005 168c-409,2 -817,-6 -1228,-9 92,-342 -26,-26 141,-354l-291 349 -1473 19c133,-271 567,-921 636,-1166 -244,266 -532,797 -677,1183l-2166 27c84,-268 469,-1142 753,-1259 918,-240 4488,57 5566,96 -295,-210 -436,-56 -768,-286l-1117 -1077c-210,-189 -277,-322 -477,-539l280 -537 -313 357c-8,-16 -34,37 -85,80l-603 -614c177,347 385,467 576,815 -150,282 -277,404 -396,733z"/><path class="fil0" d="M13619 43918c253,106 13016,-77 14568,-76 1732,2 14021,377 14484,196 -313,-149 -13053,-321 -14575,-319 -738,1 -13242,23 -13880,137 -229,41 -574,56 -597,62z"/><path class="fil0" d="M20799 38899c3823,-3 7558,-529 11409,-571 1933,-21 3897,-50 5848,-88 839,-17 5514,131 5720,14 -1292,-504 -22182,224 -22977,645z"/><path class="fil0" d="M15784 42639c325,98 2686,-136 3265,-184 4581,-381 13164,-1025 17383,-798 779,42 6900,90 7154,-23 -415,-135 -6109,-123 -7083,-128 -2439,-11 -4731,43 -7127,109 -520,14 -13248,874 -13592,1024z"/><path class="fil0" d="M22543 36848c1698,-7 3538,-206 5278,-247 5104,-122 11462,176 16439,-91 -426,-275 -4984,-57 -5473,-46 -2758,57 -15205,-157 -16244,384z"/><path class="fil0" d="M41712 40249c415,1 2580,-47 2731,-146l-19637 146c-613,9 -4944,-23 -5299,194l3383 -39c637,62 4237,-114 5206,-133 4264,-83 9195,-31 13616,-22z"/><path class="fil0" d="M26051 18897c774,-8 1415,-105 2136,-140 3367,-162 7184,-183 10600,-194l3291 -3c759,4 562,71 934,171 -91,-311 266,-256 -935,-279 -2452,-47 -5198,58 -7584,39 -2181,-17 -5701,93 -7971,274l-471 132z"/><path class="fil0" d="M45364 10307c-460,197 -805,468 -1318,559l-8 -61c-5,10 -34,17 -45,66 -3,10 -89,116 -106,138 -75,96 -65,46 -104,142 1,-1 353,-175 524,21 25,28 377,24 -137,393 -371,267 -243,1 -411,414 684,-190 1051,-764 1681,-922 -176,637 -1127,739 -1311,1210 525,26 487,-218 969,-344 -31,-353 -44,-140 618,-875 -330,-369 -255,68 -440,-281 -206,194 -411,387 -779,498 199,-538 77,-108 398,-472l35 -71c95,-205 125,-177 434,-415z"/><path class="fil0" d="M42987 25432c733,24 1403,85 2085,98 -602,-317 -7793,-280 -8343,25l6258 -123z"/><path class="fil0" d="M5881 35682c492,770 4885,3190 5415,3399 -189,-234 -4721,-2950 -5415,-3399z"/><path class="fil0" d="M5969 33098c176,427 734,643 1319,1019 774,496 3801,2471 4268,2597 -144,-234 -2426,-1605 -2752,-1829l-2835 -1787z"/><path class="fil0" d="M6228 37677c83,108 -56,132 260,347l2351 1396c953,557 1822,1007 2807,1506 -84,-117 -26,-62 -133,-164l-5285 -3085z"/><path class="fil0" d="M5444 24367c414,610 484,534 1315,1051l2924 1828c300,166 1160,821 1466,844 -406,-380 -3561,-2307 -4291,-2772l-1414 -951z"/><path class="fil0" d="M6126 41678c136,342 104,294 403,505 1064,752 3560,2183 4694,2402l-374 -235c-1233,-552 -2475,-1132 -3627,-1856l-1096 -816z"/><path class="fil0" d="M5896 40184c128,199 -201,4 563,517 227,152 452,278 682,413 503,293 840,476 1330,771 455,275 869,517 1311,793 407,255 920,633 1329,793l-631 -485c-263,-176 -449,-269 -675,-425 -1129,-777 -2252,-1343 -3283,-2013 -640,-415 -161,-349 -626,-364z"/><path class="fil0" d="M5396 23075l1264 1072c476,330 910,615 1384,899 727,435 2157,1423 2892,1707 -17,-17 -38,-42 -50,-52l-2734 -1764c-483,-319 -899,-579 -1390,-893 -324,-207 -1084,-858 -1366,-969z"/><path class="fil0" d="M11471 41844l5714 27c-377,-132 -3630,-206 -4350,-165 -279,16 -453,18 -732,1 -943,-56 -524,19 -632,137z"/><path class="fil0" d="M8411 44140c-1236,-592 -905,-444 -1861,-1211 26,330 13,256 315,474 731,528 2939,1693 3684,1784 -400,-329 -1535,-757 -2138,-1047z"/><path class="fil0" d="M5444 20800c186,411 2245,1638 2607,1864 461,288 883,531 1350,844 402,270 934,656 1337,863 -16,-16 -38,-38 -49,-47l-3915 -2667c-337,-239 -961,-728 -1330,-857z"/><path class="fil0" d="M6262 39522c179,245 766,554 1049,691l2243 1231c370,183 726,499 1197,592 -114,-188 78,-63 -254,-262l-4235 -2252z"/><path class="fil0" d="M5624 25927c335,495 -372,-194 433,365l4813 2874c-176,-337 -3366,-2123 -3924,-2479 -252,-161 -463,-266 -705,-386 -288,-144 -331,-248 -617,-374z"/><path class="fil0" d="M5992 34418c106,158 -163,2 238,301l4529 2605c-333,-383 -1842,-1161 -2365,-1482l-2402 -1424z"/><path class="fil0" d="M38652 27057l5849 95c-1068,-78 -4926,-384 -5849,-95z"/><path class="fil0" d="M34042 46199c-127,-12 -329,-3 -463,-3 -4321,-8 -9034,-239 -13433,-247 -340,-1 -661,-12 -1001,17 -103,8 -307,26 -382,37l15279 196z"/><path class="fil0" d="M7626 45002c87,150 -131,80 228,332l1075 572c283,132 1227,621 1511,479 -771,-434 -1245,-431 -2814,-1383z"/><path class="fil0" d="M11048 21050c333,59 1166,-153 1690,-125 544,29 1045,187 1661,165 -368,-245 -3080,-523 -3351,-40z"/><path class="fil0" d="M45372 12678c-613,250 -1648,1211 -1791,1750 765,-641 -559,-58 1396,-954l-252 -43c-9,-1 -39,-10 -46,-12 -7,-1 -30,-8 -44,-15 212,-192 621,-492 737,-726z"/><path class="fil0" d="M36855 10757l16 266c362,128 584,494 800,761 627,777 590,493 485,969 39,-30 62,-376 439,112 169,219 120,228 381,364l-666 -899c-421,-313 -1036,-1117 -1272,-1484l738 -1279c-133,221 -278,385 -442,646 -192,305 -215,417 -479,544z"/><path class="fil0" d="M11863 33141l1705 -45 1447 120c-454,-309 -2643,-371 -3152,-75z"/><path class="fil0" d="M10403 17736c214,116 3524,-25 3747,-129 -216,-82 -3373,61 -3747,129z"/><path class="fil0" d="M12035 29575l335 88c695,50 1885,-68 2549,162 -239,-339 -2370,-381 -2884,-250z"/><path class="fil0" d="M44313 14361c1112,-186 589,-286 597,-407 153,-131 736,-548 798,-689 -390,129 -716,422 -1061,696 -244,195 -197,127 -334,400z"/><path class="fil0" d="M10925 12392c204,453 607,587 831,1012l-276 709c135,-180 235,-427 340,-630 262,200 398,445 740,648 -195,-331 -1314,-1585 -1635,-1739z"/><path class="fil0" d="M11697 31519l2894 58c-378,-140 -2530,-296 -2894,-58z"/><path class="fil0" d="M26545 11945l304 438c-127,277 -404,729 -443,982l502 -831c394,259 652,823 1001,1054 -273,-447 -642,-789 -929,-1189 59,-382 171,-370 256,-708 -80,172 -208,361 -300,546l-391 -292z"/><path class="fil0" d="M18415 37444c-111,-173 43,-67 -249,-224l-1680 -976 228 235c400,312 1253,867 1701,965z"/><path class="fil0" d="M16853 11215c333,579 432,426 989,1112l411 363c-322,-509 -782,-826 -1053,-1296l482 -1176c-186,289 -383,796 -500,1110 -164,-59 -170,-33 -329,-113z"/><path class="fil0" d="M45538 15303c-444,198 -659,406 -706,808l888 -364c-261,-112 -168,-8 -505,4 179,-271 215,-77 323,-448z"/><path class="fil0" d="M11282 9475c-216,97 -143,89 -363,168l-402 -429c72,264 176,263 300,541l106 50c135,170 294,359 408,535 15,23 49,94 64,115l460 410c-47,-87 -327,-542 -370,-589 -90,-100 -50,13 -240,-209 -81,-95 -125,-188 -199,-317l236 -275z"/><path class="fil0" d="M44500 14833c276,78 404,2 643,-52 -208,-155 -411,-76 -69,-378 235,-207 325,-181 529,-425 -417,53 -1047,653 -1103,855z"/><path class="fil0" d="M16221 37702c241,395 1502,879 1928,914l-1928 -914z"/><path class="fil0" d="M40525 12118c-153,-247 -968,-1250 -1259,-1379 -47,487 -275,580 -470,1012 197,-270 335,-471 481,-771 657,268 732,819 1248,1138z"/><path class="fil0" d="M5964 30229c577,648 1633,1135 2428,1593l-2428 -1593z"/><path class="fil0" d="M28637 12116c272,664 705,474 382,1087 245,-316 -38,-75 318,-199 97,215 160,350 426,511 -246,-359 -326,-358 -490,-797 82,-127 196,-286 273,-453 -228,245 -26,180 -367,446l-542 -595z"/><path class="fil0" d="M40341 12837c80,-90 80,-120 147,-196 195,-220 18,-66 219,-183l830 756c-159,-229 -261,-305 -432,-481 -192,-200 -319,-262 -299,-620l-281 5c140,432 -26,308 -184,719z"/><path class="fil0" d="M19506 13951c-149,-242 -615,-619 -840,-912l381 -1009c-427,603 -65,609 -580,892 -14,8 -45,19 -67,31 360,246 81,92 60,578 49,-273 152,-255 270,-341l776 761z"/><path class="fil0" d="M28010 15146c68,-121 126,-217 186,-348 15,-31 76,-185 79,-190 153,-273 50,-103 186,-230 161,127 206,197 354,312 -494,-789 -262,-315 -106,-966 -66,202 -99,222 -188,373 -499,-222 -196,-216 -612,-509 186,307 278,318 472,638 -67,314 -230,573 -371,920z"/><path class="fil0" d="M23068 13766c148,254 297,358 473,643 -62,175 -108,248 -195,455 310,-369 35,-295 475,-253 -175,-352 -135,-171 -41,-558 -94,176 -44,112 -282,203 -119,-263 -153,-318 -430,-490z"/><path class="fil0" d="M14130 13516c-236,-367 -908,-1162 -1187,-1381 227,394 697,793 848,1050 264,448 -147,197 339,331z"/><path class="fil0" d="M19690 7378c466,136 186,225 639,458 -103,-218 -92,-158 -223,-331 -124,-163 -101,-72 -145,-299 -231,-84 -175,-73 -352,-185 114,276 47,-32 81,357z"/><path class="fil0" d="M25174 13678c-174,-320 -525,-718 -731,-987l-540 1160c178,-254 354,-655 497,-932 232,109 105,20 264,173l510 586z"/><path class="fil0" d="M18049 30945c272,-105 300,-157 492,-327 117,-103 163,-129 245,-208 177,-170 87,-84 161,-206 -259,113 -280,164 -485,337 -119,101 -156,105 -261,197 -235,209 -62,17 -152,207z"/><path class="fil0" d="M13120 10933c-16,17 -43,18 -49,50 -6,31 -37,39 -44,51 -454,691 -163,722 -654,445 283,487 106,196 154,627l280 -551c105,-264 213,-338 313,-622z"/><path class="fil0" d="M16853 11215c-86,-210 -503,-708 -731,-830 166,319 456,692 731,830z"/><path class="fil0" d="M17860 35238l-804 569c-124,143 -65,14 -84,219 261,-124 258,-196 466,-391 270,-253 268,-116 422,-397z"/><path class="fil0" d="M41537 13214l126 274c-156,292 -277,433 -429,762 72,-71 76,-58 151,-165 172,-245 79,-241 403,-511 17,-14 74,-58 98,-77l-349 -283z"/><path class="fil0" d="M19961 7206c313,-83 814,-398 992,-569 -361,78 -755,336 -992,569z"/><path class="fil0" d="M17483 33421l-67 -113c-10,-13 -29,-37 -41,-51 -11,-14 -33,-32 -46,-46 -361,-404 -184,-344 -432,-400 71,289 282,510 586,610z"/><path class="fil0" d="M29563 15584c-116,-207 -187,-278 -342,-475 -69,-87 -116,-161 -200,-253 -158,-172 -46,-70 -206,-166 240,313 432,748 748,894z"/><path class="fil0" d="M9824 13311c148,-118 283,-389 370,-657 -18,16 -45,17 -52,49 -7,32 -39,40 -48,51l-373 368c142,116 45,-19 103,189z"/><path class="fil0" d="M43255 10483c-254,60 -749,409 -939,646l822 -500c98,-91 64,-68 117,-146z"/><path class="fil0" d="M9638 19615c74,125 -4,40 118,159 18,17 82,63 103,80 258,204 521,311 656,550 -44,-297 -580,-637 -877,-789z"/><path class="fil0" d="M42813 15393l468 -508c-369,-208 -248,-162 -566,-388 132,142 195,229 359,339 -94,355 -130,219 -261,557z"/><path class="fil0" d="M10376 30397l459 356c174,116 236,190 435,297 -169,-242 -517,-567 -894,-653z"/><path class="fil0" d="M45364 10307l374 240c-151,-194 -575,-738 -833,-902 235,440 343,178 459,662z"/><path class="fil0" d="M42266 11486l504 472c239,-433 438,-673 703,-1042 -294,163 -483,648 -722,946 -383,-214 -194,-201 -485,-376z"/><path class="fil0" d="M9638 19615c-69,-103 -6,-44 -120,-152 -17,-16 -122,-95 -156,-118 -143,-98 -183,-116 -359,-183 140,265 375,383 635,453z"/><path class="fil0" d="M15851 12858c148,258 582,751 790,872 -48,-136 -22,-81 -105,-190l-685 -682z"/><path class="fil0" d="M19875 14315c96,219 251,377 504,503 -17,-286 17,-124 -181,-276 -99,-75 -191,-139 -323,-227z"/><path class="fil0" d="M8968 12498c163,245 250,276 511,369 -161,-250 -169,-255 -511,-369z"/><path class="fil0" d="M28637 12116l-822 -991c116,296 611,818 822,991z"/><path class="fil0" d="M19599 20809l736 -646c-209,100 -275,172 -440,300 -78,60 -137,94 -200,166 -121,139 -21,5 -96,180z"/><path class="fil0" d="M35376 13653c36,-119 -53,-26 83,-182 190,-218 70,-77 243,-169l-81 -196c-4,-30 -20,-38 -32,-57 -79,184 -204,443 -213,604z"/><path class="fil0" d="M39711 16596c201,-162 297,-362 457,-650 -188,141 -377,465 -457,650z"/><path class="fil0" d="M17860 35238c337,-154 300,-126 478,-387 -94,58 -246,140 -311,191 -203,157 -80,45 -167,196z"/><path class="fil0" d="M42715 14497l-714 -849c147,330 488,640 714,849z"/><path class="fil0" d="M41822 13311c216,-130 161,-115 265,-376 -204,167 -156,62 -265,376z"/><path class="fil0" d="M11282 9475l833 -646c-326,188 -643,414 -833,646z"/><path class="fil0" d="M24325 12644c-90,-127 -132,-157 -221,-268 -171,-213 -105,-186 -311,-352 116,175 363,534 532,620z"/><path class="fil0" d="M36855 10757c-104,-278 -84,-259 -356,-374l356 374z"/><path class="fil0" d="M10733 23261l332 342c-62,-225 -80,-196 -332,-342z"/><path class="fil0" d="M15847 22266l-268 260c324,-118 153,41 268,-260z"/><path class="fil0" d="M41803 16791l1010 -1398c-19,15 -45,35 -56,46l-954 1352z"/><path class="fil0" d="M16486 36244c-150,-286 24,-111 -288,-253l288 253z"/><path class="fil0" d="M19875 14315l-369 -364c163,229 121,227 369,364z"/><path class="fil0" d="M10733 23261l-545 -439c130,156 334,307 545,439z"/><path class="fil0" d="M10959 11211c-27,204 79,46 75,0 -14,-149 -66,-63 -75,0z"/><path class="fil0" d="M10186 14223l202 167c-156,-155 -74,-78 -202,-167z"/><polygon class="fil0" points="39977,13406 40341,12837 "/></g><text x="0" y="50815" fill="#000000" font-size="5px" font-weight="bold" font-family="'Helvetica Neue', Helvetica, Arial-Unicode, Arial, Sans-serif">Created by Alex Muravev</text><text x="0" y="50820" fill="#000000" font-size="5px" font-weight="bold" font-family="'Helvetica Neue', Helvetica, Arial-Unicode, Arial, Sans-serif">from the Noun Project</text></svg>