<svg xmlns="http://www.w3.org/2000/svg" xmlns:xlink="http://www.w3.org/1999/xlink" xml:space="preserve" version="1.1" style="shape-rendering:geometricPrecision;text-rendering:geometricPrecision;image-rendering:optimizeQuality;" viewBox="0 0 50800 63500" x="0px" y="0px" fill-rule="evenodd" clip-rule="evenodd"><defs><style type="text/css">
   
    .fil0 {fill:black}
   
  </style></defs><g><path class="fil0" d="M40750 30365c-28,-39 -258,-194 -143,-722 147,-679 175,-354 372,-499l-229 1221zm-713 -11041c-460,-1541 169,-1242 1418,-1209 -150,307 -508,446 -729,645 -210,188 -399,353 -689,564zm-14648 -11387c822,1429 -84,9465 19,12004 54,1307 157,2839 173,4042 38,2809 -167,5504 -164,8245 2,1441 198,2710 193,4049 -4,1216 71,2726 259,3901 401,231 682,237 1148,512 396,-469 2996,-1409 3781,-1792 1243,-605 2501,-1260 3752,-2028 1202,-738 4172,-2500 5045,-3496 432,-493 223,-1873 235,-2657 634,417 13,59 479,601l245 -522c765,362 1149,111 2327,75 -100,-804 -255,118 -331,-637 -37,-366 175,-746 205,-1072 80,-848 78,-408 -126,-719 -317,341 -265,440 -319,976l-102 754c-139,423 98,33 -168,331l-101 -1807c-6,-25 -17,-73 -32,-107 -345,279 -251,327 -259,887 -4,352 67,746 -175,1006 -499,-514 -73,-1868 138,-2286 -2016,744 -862,1202 -1584,2215l-104 -10760 667 -450c263,-203 406,-320 681,-482 317,-187 1095,-443 1447,-453 213,1208 -45,2455 -16,3552l458 10590c509,991 3460,264 4501,-58 520,-160 744,-429 1308,-682 -30,-2507 -153,-5134 -96,-7681 57,-2516 208,-5248 59,-7604l-5884 -749c285,579 527,458 1172,501l4281 651c-26,1086 185,2296 121,3342 -84,1377 -121,2422 -146,3859 -11,653 -10,1227 14,1880 33,911 -139,1181 -216,1893 -148,1376 293,2450 224,3744 -869,420 -1189,632 -2297,738 82,-1420 32,-3562 -211,-4805 -550,284 -253,1075 -144,2268 66,726 246,2085 -36,2649 -1083,175 -729,-269 -734,-2151l162 -2042c22,-786 102,-284 -151,-561 -899,1218 56,4223 -434,4956 -1120,-449 -157,-3747 -722,-4668 -328,187 -130,-70 -228,291 -28,104 -2,425 6,581 22,435 22,862 41,1298 20,447 26,872 37,1309 13,531 94,830 -146,1097 -290,-424 -312,-6653 -396,-7782 -122,-1616 130,-7422 -182,-8238 -514,303 -254,771 -313,1471 -475,-13 -837,-139 -1420,-158 -509,-17 -1031,111 -1385,96l-150 -1361c-423,664 -168,6571 -199,7929 -62,2733 140,5626 -194,8239l-1521 1613c-233,183 -418,290 -671,485 -1272,980 -2992,1788 -4132,2519 -934,600 -3665,2056 -4665,2197 302,-857 330,-2211 386,-3207 37,-653 158,-792 -337,-997 -283,587 -102,2745 -173,3606 -343,182 228,228 -111,-34 -195,-150 3,-91 -78,-110 -168,799 40,841 -649,1074 -542,-750 195,-3292 -307,-4352 -483,296 -107,187 -152,954 -41,701 -250,375 -120,1009 138,673 303,1869 -236,2334 -470,-366 -429,-1003 -438,-1591 -26,-1673 69,-4638 -380,-6034 -563,-1750 348,-3980 169,-5826 -82,-848 105,-1073 14,-1851 -169,-1444 -217,-6625 -192,-8270 16,-1051 159,-995 314,-1748 170,-823 -262,-4560 -67,-6155 2348,712 10396,5166 12544,7597 412,465 212,558 903,617 -576,-768 -667,-1010 -1393,-1571l-3355 -2428c-609,-454 -1109,-795 -1746,-1141 -1797,-979 -3805,-2121 -5699,-2973 -672,-302 -1258,-718 -1921,-441z"/><path class="fil0" d="M5041 24392l2 1462c-302,-311 -590,-533 -1098,-661 210,699 1362,507 1337,2344 -267,-324 -1251,-1038 -1520,-957 -1,2 -298,75 258,435 699,453 1300,607 1471,1575 919,5191 2976,7924 3193,8986 -404,375 -761,627 -1472,595l-428 -789 722 114c251,-11 190,-15 287,-64 -860,-629 -1123,-122 -1635,-1335 750,120 749,304 1506,376 -143,-171 -35,-88 -250,-239 -1021,-720 -1426,27 -2033,-1662 600,52 1278,424 1787,646 -165,-382 -839,-788 -1323,-906 -589,-142 -707,332 -1070,-1274 1202,124 1450,689 2147,1094 -68,-606 -382,-834 -1278,-1208 -1058,-441 -966,-133 -1226,-1376 689,189 1260,628 1722,604 -336,-338 -369,-340 -853,-604 -170,-93 -397,-209 -594,-259 -351,-87 -408,54 -521,-73 -655,-1678 -616,-2733 -946,-4570 -382,-2135 -235,-3117 86,-5176 680,205 1327,747 1735,1061l25 1457c-531,-319 -636,-656 -1451,-754 199,424 1092,870 1420,1158zm-1508 -3294c54,-1007 603,-2531 979,-3419 644,317 791,398 1309,817 -47,357 -126,725 -196,1000l-305 744c-217,-282 -512,-626 -984,-734 97,551 576,752 1031,955 -1,242 -169,2078 -296,1711 -8,-21 -30,71 -50,104 -543,-605 -854,-666 -1488,-1178zm5675 16623c-146,-631 -966,-2130 -1309,-2854 -490,-1036 -723,-1959 -1198,-2994 -679,-1479 -1211,-5330 -1206,-7167 9,-3454 482,-7281 2634,-9919l870 -1152c570,-841 964,-411 735,-1270 -494,-14 -191,-24 -675,315 -970,680 -117,445 -962,1495 -1059,1318 -1702,2216 -2123,4076 -605,-287 -525,-437 -1270,-861 102,-563 178,-868 504,-1196l746 524c-173,-711 -347,-395 -672,-969l584 -900c490,245 323,272 734,434 -243,-1181 -401,436 -249,-1358 20,-244 -195,146 40,-441 205,-514 911,-1444 1254,-1741 555,249 824,569 1598,537 -23,-27 -63,-100 -75,-74 -14,29 -1103,-1000 -1667,-1058 -388,317 -150,226 -447,685 -162,250 -390,468 -577,722 -359,491 -2437,4094 -2578,4944 -156,946 -1219,2002 -1158,3738 85,2414 -495,772 4,4763 195,1564 352,2749 717,4190l1240 3817c286,768 1815,4520 2804,4589 692,48 1427,-504 1702,-875z"/><path class="fil0" d="M11900 17379c443,364 153,-12 347,394 -1181,2780 -625,295 -1545,4365 -503,2230 178,6538 1331,8595 605,1080 1062,3542 2819,2784 330,-142 760,-356 643,-766l-713 94c-304,127 -435,257 -811,394 -239,-307 -488,-632 -754,-1035 726,131 660,287 1269,501 -682,-1025 -1366,-597 -1523,-766 -186,-502 -298,-762 -579,-1270 -1114,-2010 -1819,-5968 -1345,-8337 209,-1043 357,-2413 943,-3082 266,202 568,432 901,657 -408,-1265 -1102,-204 -367,-1925 781,163 781,357 1376,503 -270,-524 -595,-640 -1086,-1001 73,-517 202,-639 477,-987 467,190 326,293 842,419 -262,-504 -415,-459 -792,-878l481 -806c313,316 747,554 1047,806 -663,3247 -1011,2486 -2028,6788 -429,-264 -787,-624 -1454,-746 384,1009 102,134 986,806 404,307 417,622 263,1311l-1032 -546c262,1016 980,-24 1129,1638 -549,190 243,-105 -337,9 -416,81 -110,-130 -358,136 902,556 1018,551 1076,1847 -275,-182 -859,-694 -1221,-546 408,859 1354,156 1371,1863 -499,-148 -507,-305 -936,-384 38,613 258,354 848,804 412,315 547,678 694,1247 -455,-270 -583,-587 -1059,-543 133,742 725,183 1984,2161 276,433 340,580 754,592 -73,-890 -2104,-2875 -1857,-4335 4,-22 21,-63 24,-84 16,-108 47,-46 12,-227 -67,-343 -199,-244 -232,-1026 -39,-929 -320,-397 -324,-1611 -7,-2116 99,-2614 732,-5066 268,-1039 950,-1524 1212,-3090 197,-1184 186,-373 454,-1007l-1700 -1206c-1469,825 -961,1579 -1321,2196 -381,652 -66,51 -641,360z"/><path class="fil0" d="M19048 22254c-321,-177 -577,-421 -1116,-438 212,391 543,430 975,713l259 3517c-699,-381 -883,-886 -1818,-543l75 -2120c612,83 710,314 1364,436l-1223 -951c44,-875 220,-1295 495,-1938 615,123 680,214 1127,483l-138 841zm650 -1879c-91,238 -91,261 -195,428 -181,289 -182,222 -300,340l-921 -632 308 -930c636,138 789,291 1108,794zm-820 -1651c580,84 903,342 1287,660l-169 606c-378,-168 -99,-26 -356,-184 -1181,-728 -923,-178 -762,-1082zm607 11595c-53,-205 -1874,-2494 -2055,-4795 1042,350 1861,553 2097,1677l-1100 -621c80,302 -114,176 683,689 560,361 601,218 780,764 -461,-153 -539,-361 -927,-138 629,408 645,216 1240,879 438,489 -111,189 453,422 307,-776 -1109,-1538 -1344,-4768 -169,-2318 537,-3573 1422,-5027 -246,-332 -467,-544 -784,-776 -499,-365 -603,-388 -1301,-254 -907,1632 -1638,4230 -1622,6343 11,1441 912,4058 1829,5268 426,563 -46,357 629,337z"/><path class="fil0" d="M34782 35878c718,-182 707,-842 1003,-2409 138,-730 621,-2304 195,-2942 -312,402 -405,1894 -508,2622l-429 2030c-281,666 -127,-37 -261,699z"/><path class="fil0" d="M33560 36444c-22,6 -60,-1 -66,19l-225 -155c-6,58 -20,256 -19,262 61,260 51,181 127,307 1138,-759 1649,-4701 1012,-5162 -155,236 -280,3678 -829,4729z"/><path class="fil0" d="M32224 36998c-25,17 -73,6 -81,40 -12,48 -694,41 -67,568 747,-641 1492,-4837 1012,-5454 -82,105 -696,4200 -864,4846z"/><path class="fil0" d="M29070 38851c760,-70 778,-1081 928,-2162 104,-755 295,-2419 139,-3099 -566,240 -262,904 -431,2669 -165,1725 -125,1726 -636,2592z"/><path class="fil0" d="M30459 38311c1014,-422 1555,-3312 1491,-4505 -41,-761 29,-412 -307,-615l-94 618c-5,1141 -246,2357 -515,3448 -160,647 -285,577 -575,1054z"/><path class="fil0" d="M36307 35118c364,-504 1553,-3919 685,-4571 -6,11 -528,4024 -685,4571z"/><path class="fil0" d="M47255 31637c323,-522 148,-2474 57,-3249 -118,-1010 -151,-782 -346,-947 -119,222 -194,-303 -13,887 164,1075 -43,2634 302,3309z"/><path class="fil0" d="M37080 34307c148,-344 1691,-3203 970,-4327l-970 4327z"/><path class="fil0" d="M48095 30802l-30 -2768c3,-519 344,-357 -231,-518 -176,514 -50,1908 -10,2553 36,600 -63,514 271,733z"/><path class="fil0" d="M19653 30481c597,-45 1376,-325 1344,-908 -396,-111 -509,-44 -824,142 -393,233 -450,348 -520,766z"/><path class="fil0" d="M5799 31113c-175,-721 -1029,-1365 -1893,-1372 271,445 460,400 913,684 364,228 540,452 980,688z"/><path class="fil0" d="M40375 26446l111 253c519,-130 1338,-1162 1403,-1370 -395,36 -1405,911 -1514,1117z"/><path class="fil0" d="M18820 28773c178,223 510,766 856,831 854,160 225,9 467,-123 -241,-329 -1052,-984 -1323,-708z"/><path class="fil0" d="M40415 27922c631,-27 1558,-890 1706,-1238 -644,123 -1572,944 -1706,1238z"/><path class="fil0" d="M14197 32110c-122,-760 -635,-1047 -1407,-1220 149,334 28,179 273,398 46,42 248,154 350,233 448,347 240,334 784,589z"/><path class="fil0" d="M3695 28470l368 254c135,71 276,115 402,178 397,198 430,290 887,449 -136,-497 -619,-726 -1155,-921 -916,-335 -246,-101 -502,40z"/><path class="fil0" d="M40854 22774c529,-308 443,-388 823,-750 119,-114 257,-229 378,-335l466 -514c-760,228 -1453,908 -1667,1599z"/><path class="fil0" d="M40595 25033c167,-1 -29,149 287,-174 154,-158 233,-269 343,-393 671,-763 482,-278 808,-794 -550,53 -573,248 -903,566 -389,373 -666,452 -535,795z"/><path class="fil0" d="M12963 21700c-134,-619 -314,-790 -983,-1036 161,477 51,171 446,568 330,332 105,270 537,468z"/><path class="fil0" d="M41480 20222l-1527 1223c585,22 1327,-843 1527,-1223z"/><path class="fil0" d="M17648 24278l1142 756c-161,-425 -647,-1012 -1142,-756z"/><path class="fil0" d="M7862 13799c-40,-523 -354,-783 -923,-817 148,223 13,80 191,254l732 563z"/><path class="fil0" d="M41480 20222l667 -445c-192,-51 -528,243 -667,445z"/></g><text x="0" y="50815" fill="#000000" font-size="5px" font-weight="bold" font-family="'Helvetica Neue', Helvetica, Arial-Unicode, Arial, Sans-serif">Created by Alex Muravev</text><text x="0" y="50820" fill="#000000" font-size="5px" font-weight="bold" font-family="'Helvetica Neue', Helvetica, Arial-Unicode, Arial, Sans-serif">from the Noun Project</text></svg>