<svg xmlns="http://www.w3.org/2000/svg" xmlns:xlink="http://www.w3.org/1999/xlink" xml:space="preserve" version="1.1" style="shape-rendering:geometricPrecision;text-rendering:geometricPrecision;image-rendering:optimizeQuality;" viewBox="0 0 50800 63500" x="0px" y="0px" fill-rule="evenodd" clip-rule="evenodd"><defs><style type="text/css">
   
    .fil0 {fill:black}
   
  </style></defs><g><path class="fil0" d="M11996 19783c2,0 224,-207 -14,-114 -144,55 -90,122 14,114zm-18 863l27 -225c-48,33 -236,-103 -27,225zm5808 -5187c167,-317 45,-190 0,-275 -129,239 -134,52 0,275zm4627 -2536c155,-266 101,-245 74,-601 -310,-130 -207,-85 -416,-235 8,64 285,699 342,836zm1308 -2071c85,325 157,222 226,733 240,-416 323,-474 344,-1036l-570 303zm1449 -1077c484,368 125,42 394,583 350,-297 189,-719 590,-1154l348 428c63,-417 -54,-438 144,-770 445,230 53,40 296,494l369 -1192c-464,139 -1634,1252 -2141,1611zm2732 -963l32 -1114 -371 136c-67,373 -56,56 73,457 -327,322 -454,590 -202,1081l120 -789 348 229zm7184 7571c155,-193 90,295 273,-331 -418,132 -279,-195 -273,331zm1602 -197c274,184 112,88 295,352 210,-182 211,-336 239,-597l-1633 112c-69,201 -24,130 67,477 601,-115 48,-200 713,10 142,-305 43,-237 319,-354zm5238 189c227,-401 48,-111 15,-279l-468 -4 236 469c152,-84 58,92 217,-186zm2376 797l100 -515 -330 -465c-371,-25 -344,-89 -571,74 284,145 305,39 489,378 137,252 107,308 312,528zm244 -838c223,3 168,-60 32,-104 -171,-56 -33,104 -32,104zm510 -73c-75,188 132,861 201,1071 214,-154 165,-350 109,-589 -104,-441 -51,-374 -310,-482zm1237 124l-780 -120 159 588c471,-194 285,-173 453,147l168 -615zm-567 5495c-40,-693 201,-4225 19,-4481l-334 3873c-221,-78 -259,24 -163,-756 43,-347 51,-548 62,-902 17,-541 302,-1441 42,-1861 -311,487 15,1391 -169,1976 -423,1345 143,5184 -324,6162 -309,-372 -43,-1583 -30,-2146l68 -4920c16,-601 36,-548 -92,-1118 -95,-424 4,-789 -82,-1211 -149,292 27,253 -106,604 -224,590 -98,-58 -358,446 24,804 138,3089 -401,3643 22,-569 161,-1173 192,-1771 11,-211 200,-1755 -173,-1765 -366,-10 -256,451 -265,974 -7,408 6,777 23,1183 66,1636 165,5574 -370,6884l-54 -269c0,-2 32,-316 33,-327l200 -2277c68,-1002 95,-2325 17,-3322 -166,-555 -226,391 -140,-611 51,-585 194,-1519 -69,-2030 -275,-531 -129,-274 -152,-909 -250,330 -8,314 -392,473l-86 -826c-440,502 148,3289 -233,4088 -426,-238 285,-3148 -385,-3806 -436,959 -371,1031 -272,2110 112,1218 370,6701 33,7253 -210,-603 67,-7832 -368,-9060 -123,220 229,2477 -279,3139 -293,-564 255,-1974 -13,-2760 -205,-601 -322,-232 -433,-578 446,-232 712,-198 624,-887l-2730 -16c223,325 198,51 504,544 393,-170 -57,-229 427,-110 743,1408 358,2392 423,3888 51,1145 145,3280 -163,4349 -181,-338 116,-2984 1,-3756 -80,-533 -162,-265 -112,-885 65,-792 205,-2063 -208,-2750 -824,-20 -473,585 -476,1467 -2,431 56,1452 -295,1674 -55,-113 144,-2631 -46,-3414 -181,188 -125,222 -350,160 -474,-857 472,-84 25,-1219l-726 -76c-28,391 -75,200 120,569 272,-355 26,-334 451,-344 -203,1090 -472,537 -345,1963 62,684 109,1484 128,2170l-139 4212c-52,216 -30,139 -96,229 -177,-1049 277,-3096 50,-4146 -172,-797 -345,596 -189,-1711 48,-717 29,-1254 -201,-1928 -422,185 87,159 -463,175l-166 -533c-451,747 -245,808 -194,1624 33,534 137,1491 -219,1882 -107,-183 -50,-436 -20,-697 91,-808 151,-1935 -288,-2633 -521,481 -176,2796 -174,3618 2,578 -116,3414 -233,3816l-54 -125c-105,-504 28,-1136 71,-1644 96,-1133 158,-5224 -217,-5889 -278,288 -40,324 -334,437 -415,-487 220,-534 -326,-946l-83 377c61,1060 472,2577 70,3698 -397,-439 223,-2961 -394,-3915 -274,332 48,254 -196,630 -383,-489 197,-456 -296,-835 -213,288 -116,669 -81,1036l122 3261c0,402 -203,4107 -238,4181 -360,-558 140,-3549 48,-4485 -72,-733 -314,7 -337,-2061 -6,-577 -162,-1442 -414,-1944 -967,-59 -2265,-216 -3202,-91 1,705 1360,2692 656,4310 -431,-278 245,-2144 -485,-3021 -186,388 231,5833 -220,6828 -16,-17 -8,-50 -35,-60 -26,-11 -26,-49 -30,-64 -26,-110 -31,-10 -40,-241 -65,-1747 516,-6517 -295,-7839 -517,-58 -781,34 -1274,142 -69,-1754 573,-5593 400,-8424 -127,260 -144,689 -178,1050 -95,983 -115,454 -542,703 -28,604 -85,1098 -132,1682 -84,1049 89,2299 -55,3393 -53,399 70,408 117,673 64,358 -56,415 -426,392 -189,-822 127,-699 75,-1424 -51,-715 -92,-522 27,-1323 133,-906 30,-2199 -62,-3124 -595,594 -401,1631 -425,2477 -18,654 -117,3727 142,4224 402,770 650,3215 288,3895 -489,-473 219,-2994 -398,-3802 -207,1304 -73,6631 -529,7338 -32,-102 174,-3951 212,-4465 100,-1376 162,-3432 73,-4798 -36,445 -3,774 -244,1075 -256,-548 427,-4642 -265,-5715 -177,387 -158,709 -522,869 -276,-206 -193,-295 -257,-428 -396,564 -100,3827 -142,4859l-100 1685c-309,-231 -107,-2564 -114,-3063 -18,-1400 231,-2233 -372,-2984 -356,463 -183,657 -430,1079 -252,431 -213,-69 -178,467 19,294 60,394 41,747 -53,951 -202,2060 -210,2995 -318,-177 -232,-317 -178,-788 115,-1009 221,-2200 46,-3192 -221,136 -125,288 -356,510l-93 -483c2,-187 36,-250 26,-480 -213,50 -47,-90 -267,219l-100 -326 -457 360c335,448 355,446 327,1092 -41,925 -291,447 -323,1170 -28,630 117,2389 -112,2796 -596,-927 288,-2502 -162,-3518 -202,-455 -50,196 -218,-374 -99,-332 87,-219 -115,-581 -273,-71 -344,54 -557,234 20,468 272,660 -31,1048 -234,-358 -1,-483 -216,-838 -371,146 -123,520 -34,896 360,1513 301,7918 -243,8671 -239,-528 530,-3610 283,-4676 -221,-950 -376,398 -288,-2171 57,-1667 -99,-1047 -256,-1695l-74 -437c-7,-25 -24,-59 -31,-79 -7,-19 -19,-53 -35,-76 -481,289 -287,57 -306,509 -16,385 173,502 -173,687l-36 -726 -562 221c244,1123 337,1622 239,2833 -6,68 -20,345 -23,359 -49,311 -39,20 -109,386 -156,826 -103,3332 -320,3911 -307,-343 71,-3108 105,-3529 75,-942 -41,-1826 -38,-2761 1,-553 117,-575 -146,-916 -533,334 75,621 -325,1173 -14,-16 -2,-50 -26,-59 -25,-10 -21,-49 -24,-63 -66,-300 35,-345 -119,-657 -294,208 -132,1327 -160,2000 -21,478 -38,1794 -234,2085 -240,-375 3,-2437 -1,-3084 -461,348 -141,376 -479,717 -13,-23 4,-60 -25,-74l-196 -828c-455,272 -177,1900 -241,2933 -33,531 -133,2641 -349,2947 -193,-338 92,-2221 80,-2830 -246,650 54,1333 -364,1678 -342,-632 316,-2322 261,-3142l23 -1081c-287,423 16,740 -471,1037 -185,-270 -23,-139 -47,-375l-66 -273c-367,383 -67,596 -480,984 -13,-20 3,-58 -23,-67l-88 -408c-560,482 -160,945 -323,1595 -69,276 -135,524 -175,833l-78 674c-82,275 56,38 -98,201 -250,-339 122,-1760 -52,-2588l-312 442 -52 -391c-564,314 -109,673 -578,1187 -15,-20 -1,-58 -28,-70 -28,-11 -21,-55 -24,-71l-51 -560c-282,295 -68,604 -115,1186 -65,819 -145,3681 -373,4134l47 -3905c52,-225 229,-5 -10,-346 -252,141 230,229 -393,281 -11,-428 154,-349 -1,-617 -255,238 -323,718 -522,1054 -677,1146 -175,3061 -795,4149 -285,-398 45,-1291 63,-1797 44,-1215 197,-1204 -332,-1666l286 -686c-822,216 -397,605 -940,1120 -408,-111 35,-424 -412,-107 197,501 396,-27 362,842 -14,357 -106,785 -306,1051 -197,-273 150,-821 77,-1417 -342,165 -182,228 -523,227l263 -455c-1355,339 -697,2123 -1479,2968 -328,-533 633,-1326 185,-2082 -333,112 -338,176 -595,401 -295,260 -315,185 -595,387 -187,460 -183,1450 -582,1723 -110,-261 118,-813 219,-1340 -98,44 -1164,748 -1205,808 209,426 4636,3820 5370,4478 1741,1562 3501,3140 5247,4695 985,878 4412,4069 5237,4609 1398,917 4312,3947 5593,4342 285,-2050 -182,-6202 349,-8029 27,-11 98,-21 85,-24 -13,-4 63,-19 86,-23 34,-7 251,-40 279,-42 209,-17 389,-1 595,10 1163,63 2315,-14 3477,77 1478,115 3106,90 4596,67 1454,-22 2938,-144 4410,27 1383,162 2747,407 4155,391l88 -135c296,-487 346,-1009 397,-1585 186,-2098 -70,-4469 56,-6638 82,-1429 59,-2953 2,-4386 -54,-1330 130,-2628 92,-3946 -13,-423 43,-261 -143,-480 -514,778 112,3839 -413,4428zm-27425 -7463c505,-382 964,-722 1484,-1076 1027,-700 2075,-1280 3012,-2106 443,-391 1003,-673 1505,-1061l4215 -3416c443,317 201,1494 171,2016 -43,732 -46,1523 -77,2270 -63,1471 -284,3099 -281,4519 1182,-221 3620,214 5008,199 154,-191 116,-146 144,-341l141 359c1222,-111 5987,112 7304,-32 210,-402 -45,-181 315,-402l276 425 1492 67 193 -249 278 255c610,65 2579,117 3021,341 155,444 -9,4174 -53,4912 -40,675 50,1725 59,2454l-60 7187c-52,814 96,1433 -27,2254l-383 1893c-1079,197 -4913,-357 -6593,-400 -755,-19 -1540,10 -2265,-15 -1565,-56 -3069,61 -4627,15 -1425,-42 -2951,-29 -4314,-89 -182,1294 -266,2905 -294,4216 -19,852 121,3629 -240,4197 -316,-109 -258,-348 -617,-602 -1913,-1352 -1803,-1289 -3535,-2860 -421,-382 -976,-770 -1428,-1132 -892,-714 -1884,-1760 -2745,-2376 -1824,-1305 -3719,-3526 -5403,-4835 -933,-724 -1744,-1716 -2711,-2408 -974,-698 -1868,-1595 -2807,-2313 -240,-184 -457,-390 -695,-585 -312,-255 -1889,-1006 -2207,-1663 253,-208 481,-302 721,-473 306,-218 266,-307 579,-503l2768 -1763c198,-101 1002,-829 1218,-1045l3855 -2938c309,-222 371,-385 549,-531 367,-303 284,106 494,-615 559,-68 951,-249 1077,-871 552,211 1047,-550 1483,-879z"/><path class="fil0" d="M24313 11775c256,653 522,9502 524,10792l-82 2757c-35,344 -42,485 -200,679 -74,-212 70,-3016 71,-3535 8,-3358 -435,-8092 -313,-10693z"/><path class="fil0" d="M31766 23133c-83,-174 47,-1608 -29,-2137 -128,-880 -290,460 -167,-1974 28,-559 -36,-1025 -93,-1575l-143 -62c-643,-351 -30,-419 -454,-1060 -334,349 -78,380 -398,645 -240,-160 -118,81 -169,-306 338,-168 -88,387 567,-555l1056 79c103,893 -181,931 -161,1650 26,920 463,4666 -9,5295z"/><path class="fil0" d="M28779 20406c-331,-468 -24,-1630 -408,-2310 -67,310 408,6219 -317,6721 354,-2626 265,-4559 105,-7079 -43,-660 -152,-538 -226,-980 195,-160 264,-189 486,-397 -119,868 678,2806 464,3828 -62,295 79,4 -104,217z"/><path class="fil0" d="M22610 22633c-252,-367 177,-3564 203,-4299 54,-1584 11,-3108 42,-4674 132,1507 206,3003 149,4576 -22,632 -234,4034 -394,4397z"/><path class="fil0" d="M15226 23256c-220,-387 46,-1575 60,-2165 10,-445 -110,-2051 137,-2409 210,519 94,4144 -197,4574z"/><path class="fil0" d="M9615 24926c-266,-318 -38,-2134 -22,-2690 254,360 208,910 184,1396 -15,298 -27,1067 -162,1294z"/><path class="fil0" d="M8138 24867c-127,-211 -4,-361 23,-624 40,-395 -53,-430 -54,-728 459,40 349,1181 31,1352z"/><path class="fil0" d="M28933 17034c-364,-14 -106,49 -344,-134 108,-215 240,-247 452,-371l-108 505z"/><path class="fil0" d="M32461 16758c-79,-124 -119,208 -104,-294 14,-445 38,-177 108,-278 247,164 226,386 -4,572z"/><path class="fil0" d="M27509 16745c-307,-148 -246,-131 -67,-362 234,209 197,139 67,362z"/><path class="fil0" d="M40340 17457c-153,-206 -106,288 -79,-125 15,-216 -29,-35 72,-183 404,245 99,182 7,308z"/></g><text x="0" y="50815" fill="#000000" font-size="5px" font-weight="bold" font-family="'Helvetica Neue', Helvetica, Arial-Unicode, Arial, Sans-serif">Created by Alex Muravev</text><text x="0" y="50820" fill="#000000" font-size="5px" font-weight="bold" font-family="'Helvetica Neue', Helvetica, Arial-Unicode, Arial, Sans-serif">from the Noun Project</text></svg>